<svg height="512" viewBox="0 0 512 512" width="512" xmlns="http://www.w3.org/2000/svg"><g id="Flat"><path d="m64 104h384a40 40 0 0 1 40 40v320a24 24 0 0 1 -24 24h-416a24 24 0 0 1 -24-24v-320a40 40 0 0 1 40-40z" fill="#324f66"/><path d="m24 280v32a16 16 0 0 0 16 16h352a16 16 0 0 0 16-16v-32z" fill="#2d475c"/><path d="m56 312h144a0 0 0 0 1 0 0v126.427a17.573 17.573 0 0 1 -17.573 17.573h-108.854a17.573 17.573 0 0 1 -17.573-17.573v-126.427a0 0 0 0 1 0 0z" fill="#395d7b"/><path d="m232 312h144a0 0 0 0 1 0 0v126.427a17.573 17.573 0 0 1 -17.573 17.573h-108.854a17.573 17.573 0 0 1 -17.573-17.573v-126.427a0 0 0 0 1 0 0z" fill="#395d7b"/><path d="m56 312h144v16h-144z" fill="#35546d"/><path d="m232 312h144v16h-144z" fill="#35546d"/><path d="m464 488h-56v-344a40 40 0 0 1 40-40 40 40 0 0 1 40 40v320a24 24 0 0 1 -24 24z" fill="#1d364a"/><path d="m144 48v56h32v-48h128v48h32v-56a24 24 0 0 0 -24-24h-144a24 24 0 0 0 -24 24z" fill="#517694"/><path d="m392 312h-352a16 16 0 0 1 -16-16v-152a40 40 0 0 1 40-40h384a40 40 0 0 0 -40 40v152a16 16 0 0 1 -16 16z" fill="#395d7b"/><path d="m488 152v312a24 24 0 0 1 -24 24h-56v-336z" fill="#294154"/><path d="m485.66 474.34a24.01 24.01 0 0 1 -11.32 11.32l-26.34-26.35-28.68 28.69h-11.32v-11.32l32-31.99v-268.69h16v268.69z" fill="#1d364a"/><path d="m152 408-24 16-24-16v-264a40 40 0 0 1 40-40h48a40 40 0 0 0 -40 40z" fill="#426887"/><path d="m88 248h80v32h-80z" fill="#517694"/><path d="m88 344h80v32h-80z" fill="#517694"/><path d="m328 408-24 16-24-16v-264a40 40 0 0 1 40-40h48a40 40 0 0 0 -40 40z" fill="#426887"/><path d="m264 248h80v32h-80z" fill="#517694"/><path d="m264 344h80v32h-80z" fill="#517694"/><g fill="#3f6380"><path d="m104 280h48v16h-48z"/><path d="m280 280h48v16h-48z"/><path d="m104 376h48v16h-48z"/><path d="m280 376h48v16h-48z"/></g></g></svg>