<svg height="512" viewBox="0 0 512 512" width="512" xmlns="http://www.w3.org/2000/svg"><g id="Flat"><path d="m160 136h192a0 0 0 0 1 0 0v120a80 80 0 0 1 -80 80h-32a80 80 0 0 1 -80-80v-120a0 0 0 0 1 0 0z" fill="#426887"/><path d="m193.458 292.361c-16.75-25.758-13.411-52.9-12.9-56.348l1.811-19.1 15.929 1.511-1.834 19.333c-.018.188-.042.374-.073.56-.033.207-3.573 23.714 10.48 45.324z" fill="#395d7b"/><path d="m318.437 293.147-12.874-9.5c7.99-10.825 10.3-24.621 11.93-47.819l-.493-18.618 16-.42.5 19c.007.254 0 .51-.016.764-1.576 22.646-3.684 41.195-15.047 56.593z" fill="#395d7b"/><path d="m384 368v128h-256v-128a48 48 0 0 1 48-48h36a12 12 0 0 0 12-12v-68h64v68a12 12 0 0 0 12 12h36a48 48 0 0 1 48 48z" fill="#fdc8a2"/><path d="m128 496v-128a48 48 0 0 1 48-48h32l22.588 64h50.824l22.588-64h32a48 48 0 0 1 48 48v128" fill="#f9e4c8"/><path d="m288 240v47.97c-.56.3-1.12.59-1.69.87a67.693 67.693 0 0 1 -60.62 0c-.57-.28-1.13-.57-1.69-.87v-47.97z" fill="#fdbf92"/><path d="m128 496v-128a48 48 0 0 1 48-48h32l48 136 48-136h32a48 48 0 0 1 48 48v128" fill="#426887"/><g fill="#395d7b"><path d="m184 496h-16v-4.814a62.171 62.171 0 0 1 -16-41.813v-.833a62.426 62.426 0 0 1 10.519-34.74l13.312 8.875a46.484 46.484 0 0 0 -7.831 25.865v.833a46.322 46.322 0 0 0 13.657 32.97 8 8 0 0 1 2.343 5.657z"/><path d="m344 496h-16v-8a8 8 0 0 1 2.343-5.657 46.322 46.322 0 0 0 13.657-32.97v-.833a46.484 46.484 0 0 0 -7.831-25.865l13.312-8.875a62.426 62.426 0 0 1 10.519 34.74v.833a62.171 62.171 0 0 1 -16 41.813z"/><path d="m248 472h16v24h-16z"/><path d="m216 480h16v16h-16z"/></g><path d="m286.311 272.845a67.785 67.785 0 0 1 -30.311 7.155 67.785 67.785 0 0 1 -30.311-7.155 89.889 89.889 0 0 1 -49.689-80.399v-48.446a80 80 0 0 1 80-80 80 80 0 0 1 80 80v48.446a89.889 89.889 0 0 1 -49.689 80.399z" fill="#fdc8a2"/><path d="m214 152a14 14 0 1 0 14 14 14.015 14.015 0 0 0 -14-14z" fill="#3c6180"/><path d="m298 152a14 14 0 1 0 14 14 14.015 14.015 0 0 0 -14-14z" fill="#3c6180"/><path d="m360 144h8a0 0 0 0 1 0 0v48a0 0 0 0 1 0 0h-8a24 24 0 0 1 -24-24 24 24 0 0 1 24-24z" fill="#fdbf92" transform="matrix(-1 0 0 -1 704 336)"/><path d="m168 144h8a0 0 0 0 1 0 0v48a0 0 0 0 1 0 0h-8a24 24 0 0 1 -24-24 24 24 0 0 1 24-24z" fill="#fdbf92"/><path d="m352 120v24h-16l-32-57.6-8-14.4-4.1 3.52q-1.935 1.665-3.9 3.29a386.72 386.72 0 0 1 -112 65.19h-16v-24a96.049 96.049 0 0 1 128-90.53 94.047 94.047 0 0 1 16 7.38 96.1 96.1 0 0 1 48 83.15z" fill="#426887"/><path d="m304 36.85v49.55l-8-14.4-4.1 3.52q-1.935 1.665-3.9 3.29v-49.34a94.047 94.047 0 0 1 16 7.38z" fill="#395d7b"/><path d="m190.394 108.808-12.794-9.608c1.578-2.1 39.282-51.561 94.088-53.7l.624 15.989c-47.103 1.838-81.575 46.864-81.918 47.319z" fill="#395d7b"/><path d="m246.111 216h-6.111v16h6.111a84.206 84.206 0 0 0 37.467-8.845l-7.156-14.31a68.118 68.118 0 0 1 -30.311 7.155z" fill="#fcb079"/><path d="m235.508 176h32.985v16h-32.985z" fill="#fcb079" transform="matrix(.243 -.97 .97 .243 12.372 383.846)"/><path d="m208 320h-16l-24 40 32 16-16 16 72 88v-24z" fill="#517694"/><path d="m304 320h16l24 40-32 16 16 16-72 88v-24z" fill="#517694"/></g></svg>