<svg height="512" viewBox="0 0 512 512" width="512" xmlns="http://www.w3.org/2000/svg"><g id="Flat"><path d="m96 288v-104a24 24 0 0 1 24-24h104a16 16 0 0 1 16 16 16 16 0 0 1 -16 16h-96v96a16 16 0 0 1 -16 16 16 16 0 0 1 -16-16z" fill="#426887"/><path d="m176 48v208h-80a24 24 0 0 0 -24 24 24 24 0 0 0 24 24h272a24 24 0 0 0 24-24v-232a24 24 0 0 0 -24-24h-168a24 24 0 0 0 -24 24z" fill="#348ed8"/><path d="m176 248h168v16h-168z" fill="#2b83cc"/><path d="m240 288v-104a24 24 0 0 1 24-24h112a16 16 0 0 1 16 16 16 16 0 0 1 -16 16h-104v96a16 16 0 0 1 -16 16 16 16 0 0 1 -16-16z" fill="#426887"/><path d="m200 48h16v16h-16z" fill="#459ce5"/><path d="m200 80h16v48h-16z" fill="#459ce5"/><path d="m224 304h64v56h-64z" fill="#426887"/><path d="m272 432v-72h-32v72l-88 24v16h208v-16z" fill="#426887"/><circle cx="148" cy="468" fill="#35546d" r="20"/><circle cx="364" cy="468" fill="#35546d" r="20"/><path d="m394.343 365.657-21.656-21.657h-84.687v-16h88a8 8 0 0 1 5.657 2.343l24 24z" fill="#3c6180"/><path d="m440.942 374.508-35.942-28.755a8 8 0 0 0 -10.654.59l-8 8a8 8 0 0 0 -.59 10.655l28.756 35.944a18.806 18.806 0 1 0 26.433-26.434z" fill="#426887"/><path d="m240 360h32v16h-32z" fill="#3c6180"/></g></svg>