<svg height="512" viewBox="0 0 512 512" width="512" xmlns="http://www.w3.org/2000/svg"><g id="Flat"><circle cx="136" cy="152" fill="#ffb431" r="112"/><path d="m152.677 222.042a72.013 72.013 0 0 1 -59.977-127.589l-9.627-12.78a88.026 88.026 0 0 0 90.015 150.147l-6.729-14.52a72.587 72.587 0 0 1 -13.682 4.742z" fill="#f99e0c"/><path d="m221.606 131.617a88 88 0 0 0 -105.989-65.224 88.567 88.567 0 0 0 -16.7 5.787l6.724 14.52a72.587 72.587 0 0 1 13.682-4.738 72.013 72.013 0 0 1 59.977 127.585l9.627 12.78a88.034 88.034 0 0 0 32.679-90.71z" fill="#f99e0c"/><path d="m128 96v16a24 24 0 0 0 0 48h16a8 8 0 0 1 0 16h-32v16h16v16h16v-16a24 24 0 0 0 0-48h-16a8 8 0 0 1 0-16h32v-16h-16v-16z" fill="#f99e0c"/><path d="m80 144h16v16h-16z" fill="#f99e0c"/><path d="m176 144h16v16h-16z" fill="#f99e0c"/><path d="m24 432h200v56h-200z" fill="#fcab1e"/><path d="m56 320h200v56h-200z" fill="#fcab1e"/><path d="m24 376h200v56h-200z" fill="#ffb431"/><path d="m24 264h200v56h-200z" fill="#ffb431"/><path d="m288 376h200v56h-200z" fill="#ffb431"/><path d="m256 264h200v56h-200z" fill="#ffb431"/><path d="m256 152h200v56h-200z" fill="#ffb431"/><path d="m264 432h200v56h-200z" fill="#fcab1e"/><path d="m288 320h200v56h-200z" fill="#fcab1e"/><path d="m288 208h200v56h-200z" fill="#fcab1e"/><g fill="#f99e0c"><path d="m56 400h16v32h-16z"/><path d="m96 400h16v32h-16z"/><path d="m136 400h16v32h-16z"/><path d="m176 400h16v32h-16z"/><path d="m56 288h16v32h-16z"/><path d="m96 288h16v32h-16z"/><path d="m136 288h16v32h-16z"/><path d="m176 288h16v32h-16z"/><path d="m320 400h16v32h-16z"/><path d="m360 400h16v32h-16z"/><path d="m400 400h16v32h-16z"/><path d="m440 400h16v32h-16z"/><path d="m288 288h16v32h-16z"/><path d="m328 288h16v32h-16z"/><path d="m368 288h16v32h-16z"/><path d="m408 288h16v32h-16z"/><path d="m288 176h16v32h-16z"/><path d="m328 176h16v32h-16z"/><path d="m368 176h16v32h-16z"/><path d="m408 176h16v32h-16z"/><path d="m296 456h16v32h-16z"/><path d="m336 456h16v32h-16z"/><path d="m376 456h16v32h-16z"/><path d="m416 456h16v32h-16z"/><path d="m56 456h16v32h-16z"/><path d="m96 456h16v32h-16z"/><path d="m136 456h16v32h-16z"/><path d="m176 456h16v32h-16z"/><path d="m88 344h16v32h-16z"/><path d="m128 344h16v32h-16z"/><path d="m168 344h16v32h-16z"/><path d="m208 344h16v32h-16z"/><path d="m320 344h16v32h-16z"/><path d="m360 344h16v32h-16z"/><path d="m400 344h16v32h-16z"/><path d="m440 344h16v32h-16z"/><path d="m320 232h16v32h-16z"/><path d="m360 232h16v32h-16z"/><path d="m400 232h16v32h-16z"/><path d="m440 232h16v32h-16z"/></g><path d="m280 16h-16v24h-16v16h16v24h16v-24h16v-16h-16z" fill="#ffc261"/><path d="m384 88h-16v-24h-16v24h-16v16h16v24h16v-24h16z" fill="#ffc261"/></g></svg>