<svg height="512" viewBox="0 0 512 512" width="512" xmlns="http://www.w3.org/2000/svg"><g id="Flat"><path d="m416 24a57.661 57.661 0 0 0 -54.7 75.9l22.7 68.1h-248v320h256a96 96 0 0 0 96-96v-224z" fill="#fdbf92"/><path d="m256 120a56 56 0 1 1 56-56 56.064 56.064 0 0 1 -56 56zm0-96a40 40 0 1 0 40 40 40.045 40.045 0 0 0 -40-40z" fill="#4db6e4"/><path d="m240 88h32v56h-32z" fill="#2f9ccb"/><path d="m192 160-50.343-50.343a8 8 0 0 0 -11.314 0l-20.686 20.686a8 8 0 0 0 0 11.314l50.343 50.343z" fill="#4db6e4"/><path d="m315.314 164.686 50.343-50.343a8 8 0 0 1 11.314 0l20.686 20.686a8 8 0 0 1 0 11.314l-50.343 50.343z" fill="#4db6e4"/><circle cx="256" cy="288" fill="#348ed8" r="168"/><circle cx="256" cy="288" fill="#d6513c" r="136"/><circle cx="256" cy="288" fill="#e25740" r="120"/><path d="m232 56h48v32h-48z" fill="#4db6e4"/><path d="m336 264v56a16 16 0 0 1 -16 16h-16v40h-96v-40h-16a16 16 0 0 1 -16-16v-56a80 80 0 0 1 80-80 80 80 0 0 1 80 80z" fill="#ffb431"/><circle cx="296" cy="272" fill="#e25740" r="32"/><circle cx="216" cy="272" fill="#e25740" r="32"/><path d="m264 344h16v32h-16z" fill="#f4970c"/><path d="m232 344h16v32h-16z" fill="#f4970c"/><path d="m269.657 314.343-8-8a8 8 0 0 0 -11.314 0l-8 8a8 8 0 0 0 5.657 13.657h16a8 8 0 0 0 5.657-13.657z" fill="#f4970c"/><path d="m147 313.839a112.714 112.714 0 0 1 2.406-60.3l15.226 4.918a96.716 96.716 0 0 0 -2.061 51.7z" fill="#dd4a34"/><path d="m362.6 322.459-15.226-4.918a96.716 96.716 0 0 0 2.061-51.7l15.565-3.68a112.714 112.714 0 0 1 -2.406 60.3z" fill="#dd4a34"/><g fill="#fdc8a2"><rect height="80" rx="40" width="136" x="24" y="168"/><rect height="80" rx="40" width="128" x="24" y="248"/><rect height="80" rx="40" width="128" x="40" y="328"/><rect height="80" rx="40" width="128" x="64" y="408"/></g><path d="m24 20.686h16v22.627h-16z" fill="#f1ddc1" transform="matrix(.707 -.707 .707 .707 -13.255 32)"/><path d="m68 36.402h16v79.196h-16z" fill="#f1ddc1" transform="matrix(.707 -.707 .707 .707 -31.48 76)"/><path d="m120 15.122h16v73.756h-16z" fill="#f1ddc1" transform="matrix(.976 -.217 .217 .976 -8.232 29.005)"/><path d="m44 83.122h16v73.756h-16z" fill="#f1ddc1" transform="matrix(.217 -.976 .976 .217 -76.423 144.73)"/><path d="m56 240h72v16h-72z" fill="#fdbf92"/><path d="m56 320h72v16h-72z" fill="#fdbf92"/><path d="m88 400h48v16h-48z" fill="#fdbf92"/></g></svg>