<svg height="512" viewBox="0 0 512 512" width="512" xmlns="http://www.w3.org/2000/svg"><g id="Flat"><rect fill="#348ed8" height="432" rx="24" width="312" x="56" y="24"/><path d="m296 488h-248a24 24 0 0 1 -24-24v-368a24 24 0 0 1 24-24h200l72 72v320a24 24 0 0 1 -24 24z" fill="#4db6e4"/><path d="m248 72v48a24 24 0 0 0 24 24h48z" fill="#5cc1ed"/><path d="m456 112a24 24 0 0 1 24 24v288a0 0 0 0 1 0 0h-48a0 0 0 0 1 0 0v-288a24 24 0 0 1 24-24z" fill="#426887"/><path d="m432 424 16 40h16l16-40z" fill="#ffb431"/><path d="m408 264h-16v-104a24.027 24.027 0 0 1 24-24h64v16h-64a8.009 8.009 0 0 0 -8 8z" fill="#ffb431"/><path d="m432 312h48v16h-48z" fill="#ffb431"/><g fill="#3ba5d3"><path d="m104 112h112v16h-112z"/><path d="m56 112h32v16h-32z"/><path d="m56 152h160v16h-160z"/><path d="m56 192h232v16h-232z"/><path d="m240 232h48v16h-48z"/><path d="m56 232h168v16h-168z"/><path d="m56 272h232v16h-232z"/><path d="m120 312h168v16h-168z"/><path d="m56 312h48v16h-48z"/><path d="m56 352h232v16h-232z"/><path d="m56 392h232v16h-232z"/><path d="m224 432h64v16h-64z"/><path d="m56 432h152v16h-152z"/></g><path d="m456 480a8 8 0 0 1 -8-8v-8h16v8a8 8 0 0 1 -8 8z" fill="#fcab1e"/></g></svg>