<svg height="512" viewBox="0 0 512 512" width="512" xmlns="http://www.w3.org/2000/svg"><g id="Flat"><rect fill="#348ed8" height="392" rx="24" width="288" x="200" y="24"/><path d="m440 144v280a24.006 24.006 0 0 1 -24 24h-240a24.006 24.006 0 0 1 -24-24v-328a24.006 24.006 0 0 1 24-24h192z" fill="#4db6e4"/><path d="m368 72v48a24 24 0 0 0 24 24h48z" fill="#5cc1ed"/><path d="m240 112h104v16h-104z" fill="#3ba5d3"/><path d="m192 112h32v16h-32z" fill="#3ba5d3"/><path d="m192 144h152v16h-152z" fill="#3ba5d3"/><path d="m192 176h208v16h-208z" fill="#3ba5d3"/><path d="m408 256v192h-232a24.006 24.006 0 0 1 -24-24v-192h232a24.006 24.006 0 0 1 24 24z" fill="#3ba5d3"/><rect fill="#426887" height="272" rx="24" width="368" x="24" y="216"/><path d="m64 216h288v272h-288z" fill="#35546d"/><path d="m324.923 313.694a7.994 7.994 0 0 0 -6.863-1.455l-32 8 3.88 15.522 4.3-1.073-13.791 13.953-42.349-49.822a8 8 0 0 0 -6.1-2.819h-.119a8 8 0 0 0 -6.128 3l-57.165 71.457-9.932-14.9a8 8 0 0 0 -12.677-.83l-56 64 12.042 10.536 49.119-56.136 10.2 15.306a8 8 0 0 0 12.9.56l57.941-72.426 41.716 49.08a8 8 0 0 0 11.785.442l26.318-26.615v12.526h16v-32a8 8 0 0 0 -3.077-6.306z" fill="#8da662"/><path d="m324.923 249.694a8 8 0 0 0 -6.863-1.455l-32 8 3.88 15.522 7.919-1.98-66.35 78.419-65.852-65.852a8 8 0 0 0 -11.636.342l-64 72 11.958 10.63 58.364-65.659 66 66a8 8 0 0 0 5.657 2.339c.11 0 .222 0 .332-.007a8 8 0 0 0 5.775-2.826l73.893-87.327v10.16h16v-32a8 8 0 0 0 -3.077-6.306z" fill="#96b268"/><g fill="#749148"><path d="m88 448h16v16h-16z"/><path d="m120 448h16v16h-16z"/><path d="m152 448h16v16h-16z"/><path d="m184 448h16v16h-16z"/><path d="m216 448h16v16h-16z"/><path d="m248 448h16v16h-16z"/><path d="m280 448h16v16h-16z"/><path d="m312 448h16v16h-16z"/></g><path d="m328 432h-232a8 8 0 0 1 -8-8v-184h16v176h224z" fill="#88a35a"/></g></svg>