<svg height="512" viewBox="0 0 512 512" width="512" xmlns="http://www.w3.org/2000/svg"><g id="Flat"><path d="m464 232c0 114.88-93.12 208-208 208s-208-93.12-208-208a208 208 0 0 1 416 0z" fill="#348ed8"/><g fill="#4db6e4"><path d="m464 232h-40l-56-56h-48v-56l48-32h38.09a207.272 207.272 0 0 1 57.91 144z"/><path d="m288 264 32-40h32l48 48h32l-24 48v48l-24 24h-48v-80h-48z"/><path d="m224 200h-40v72h-72l-56-88h-2.43a207.179 207.179 0 0 1 42.43-84.91v84.91h56v-40h48z"/><path d="m248 384h-24l-16-56-24-8v-48h64z"/><path d="m304 29.57v42.43h-32l-24 40h-32v-84.15a209.657 209.657 0 0 1 88 1.72z"/></g><path d="m367.047 371.523a109.153 109.153 0 0 0 -48.814-11.523 109.146 109.146 0 0 0 -56.158 15.555l-.742.445h-61.333a24 24 0 0 0 -24 24 24 24 0 0 0 24 24h-16l-90.967-41.667a26.144 26.144 0 0 0 -37.033 23.767v1.739a26.142 26.142 0 0 0 14.453 23.384l93.277 46.639a96 96 0 0 0 42.933 10.138h169.337v-112z" fill="#fdc8a2"/><path d="m376 376h88v112h-88z" fill="#426887"/><circle cx="416" cy="448" fill="#35546d" r="16"/><path d="m200 416h72v16h-72z" fill="#fdb683"/></g></svg>