<svg height="512" viewBox="0 0 512 512" width="512" xmlns="http://www.w3.org/2000/svg"><g id="Flat"><path d="m488 256a72.014 72.014 0 0 0 -48.529-68.066 80 80 0 0 0 -107.031-107.596 80.026 80.026 0 0 0 -152.88 0 79.995 79.995 0 0 0 -107.031 107.6 72 72 0 0 0 0 136.132 80 80 0 0 0 107.031 107.6 80.026 80.026 0 0 0 152.88 0 79.995 79.995 0 0 0 107.031-107.6 72.014 72.014 0 0 0 48.529-68.07z" fill="#f1ddc1"/><g fill="#f9e8d1"><path d="m80 248h56v16h-56z"/><path d="m48 248h16v16h-16z"/><path d="m248 48h16v16h-16z"/><path d="m147.5 123.825h16.001v64.351h-16.001z" transform="matrix(.715 -.699 .699 .715 -64.747 153.226)"/><path d="m106.25 105.411h16v17.678h-16z" transform="matrix(.707 -.707 .707 .707 -47.324 114.25)"/><path d="m92.565 284h119.871v15.999h-119.871z" transform="matrix(.943 -.334 .334 .943 -88.699 67.626)"/><path d="m248 448h16v16h-16z"/><path d="m127 172.23h15.999v82.541h-15.999z" transform="matrix(.327 -.945 .945 .327 -110.914 271.235)"/><path d="m191.5 94.607h16v41.785h-16z" transform="matrix(.933 -.359 .359 .933 -28.165 79.315)"/><path d="m376 248h56v16h-56z"/><path d="m448 248h16v16h-16z"/><path d="m321.911 149h67.179v16h-67.179z" transform="matrix(.7 -.715 .715 .7 -5.395 301.167)"/><path d="m388.911 106.25h17.678v16h-17.678z" transform="matrix(.707 -.707 .707 .707 35.703 314.699)"/><path d="m355.5 237.836h15.999v111.328h-15.999z" transform="matrix(.332 -.943 .943 .332 -34.126 538.792)"/><path d="m335.73 205.5h82.541v15.999h-82.541z" transform="matrix(.945 -.327 .327 .945 -49.098 135.066)"/><path d="m290.459 108h43.081v16h-43.081z" transform="matrix(.371 -.928 .928 .371 88.434 362.614)"/><path d="m236.993 90.5h37.014v16h-37.014z" transform="matrix(.027 -1 1 .027 150.143 351.25)"/><path d="m248 408h16v24h-16z"/><path d="m122.594 351h60.811v16h-60.811z" transform="matrix(.707 -.707 .707 .707 -209.032 213.32)"/><path d="m105.175 389.75h18.149v16h-18.149z" transform="matrix(.707 -.707 .707 .707 -247.806 197.316)"/><path d="m351.25 329.198h16v60.104h-16z" transform="matrix(.707 -.707 .707 .707 -148.806 359.272)"/><path d="m389.75 388.675h16v18.149h-16z" transform="matrix(.707 -.707 .707 .707 -164.753 397.729)"/></g><path d="m360 208a104 104 0 0 0 -105.489-103.99c-55.936.783-101.614 46.373-102.5 102.307a103.6 103.6 0 0 0 24.043 68.207 105.1 105.1 0 0 1 23.946 67.346v2.13h112v-2.128a108.421 108.421 0 0 1 24.738-68.313 103.568 103.568 0 0 0 23.262-65.559z" fill="#ffb431"/><path d="m221.371 154.359-8.748-13.4a80.211 80.211 0 0 1 16.668-8.309l5.418 15.055a64.236 64.236 0 0 0 -13.338 6.654z" fill="#ffc261"/><path d="m192.008 206.95-16-.254a80.313 80.313 0 0 1 25.807-57.296l10.872 11.739a64.24 64.24 0 0 0 -20.679 45.811z" fill="#ffc261"/><path d="m280 344h-16v-80a8 8 0 0 1 1.6-4.8l14.4-19.2h-48l14.4 19.2a8 8 0 0 1 1.6 4.8v80h-16v-77.333l-22.4-29.867a8 8 0 0 1 6.4-12.8h80a8 8 0 0 1 6.4 12.8l-22.4 29.867z" fill="#ffc261"/><path d="m200 344h112a0 0 0 0 1 0 0v48a16 16 0 0 1 -16 16h-80a16 16 0 0 1 -16-16v-48a0 0 0 0 1 0 0z" fill="#426887"/><path d="m200 368h112v16h-112z" fill="#35546d"/></g></svg>