<svg height="512" viewBox="0 0 512 512" width="512" xmlns="http://www.w3.org/2000/svg"><g id="Flat"><path d="m472 320-4 24-2.67 16-17.33 104h-160l-24-144z" fill="#e25740"/><path d="m468 344-2.67 16h-153.33v-16z" fill="#d6513c"/><path d="m448 104h16a0 0 0 0 1 0 0 80 80 0 0 1 -80 80h-16a0 0 0 0 1 0 0 80 80 0 0 1 80-80z" fill="#8da662" transform="matrix(-1 0 0 -1 832 288)"/><path d="m456 200h16a0 0 0 0 1 0 0 88 88 0 0 1 -88 88h-16a0 0 0 0 1 0 0 88 88 0 0 1 88-88z" fill="#8da662" transform="matrix(-1 0 0 -1 840 488)"/><path d="m272 104h16a80 80 0 0 1 80 80 0 0 0 0 1 0 0h-16a80 80 0 0 1 -80-80 0 0 0 0 1 0 0z" fill="#96b268"/><path d="m448 104h16a0 0 0 0 1 0 0 80 80 0 0 1 -80 80h-16a0 0 0 0 1 0 0 80 80 0 0 1 80-80z" fill="#96b268" transform="matrix(-1 0 0 -1 832 288)"/><path d="m264 200h16a88 88 0 0 1 88 88 0 0 0 0 1 0 0h-16a88 88 0 0 1 -88-88 0 0 0 0 1 0 0z" fill="#96b268"/><path d="m456 200h16a0 0 0 0 1 0 0 88 88 0 0 1 -88 88h-16a0 0 0 0 1 0 0 88 88 0 0 1 88-88z" fill="#96b268" transform="matrix(-1 0 0 -1 840 488)"/><path d="m288 24h16a64 64 0 0 1 64 64 0 0 0 0 1 0 0h-16a64 64 0 0 1 -64-64 0 0 0 0 1 0 0z" fill="#96b268"/><path d="m432 24h16a0 0 0 0 1 0 0 64 64 0 0 1 -64 64h-16a0 0 0 0 1 0 0 64 64 0 0 1 64-64z" fill="#96b268" transform="matrix(-1 0 0 -1 816 112)"/><g fill="#8da662"><path d="m361.926 189.206c-32.6-38.037-65.072-50.957-65.4-51.083l5.8-14.912c1.477.574 36.56 14.532 71.746 55.583z"/><path d="m374.074 189.206-12.148-10.412c35.186-41.051 70.269-55.009 71.746-55.583l5.8 14.912-2.9-7.456 2.915 7.45c-.327.128-33.01 13.283-65.413 51.089z"/><path d="m361.887 293.16c-35.229-41.732-70.771-56.25-71.126-56.391l5.891-14.876c1.593.628 39.455 15.924 77.461 60.947z"/><path d="m374.113 293.16-12.226-10.32c38.006-45.023 75.868-60.319 77.461-60.947l5.891 14.876c-.355.141-35.897 14.659-71.126 56.391z"/><path d="m361.344 92.438c-14.653-21.978-44.62-37.132-44.922-37.283l7.156-14.31c1.384.692 34.1 17.243 51.078 42.717z"/><path d="m374.656 92.438-13.312-8.876c16.983-25.474 49.694-42.025 51.078-42.717l7.156 14.31c-.297.145-30.326 15.39-44.922 37.283z"/><path d="m360 80h16v240h-16z"/></g><path d="m287.333 416v-111.213a106.531 106.531 0 0 0 -87.333-104.787l31.333-56h-127.333l32 56-.526.1a106.531 106.531 0 0 0 -87.474 104.808v111.092l-18.033 24.044a29.837 29.837 0 0 0 -5.967 17.901v.22a29.836 29.836 0 0 0 29.835 29.835h228.33a29.836 29.836 0 0 0 29.835-29.835 29.83 29.83 0 0 0 -6.206-18.214z" fill="#ffb431"/><path d="m160 192h40v16h-40z" fill="#f99e0c"/><path d="m208 336v-9.538a30.5 30.5 0 0 0 -30.462-30.462h-1.538v-16h-16v16h-1.538a30.462 30.462 0 0 0 -7.388 60.015l8.926 2.231v33.754h-1.538a14.478 14.478 0 0 1 -14.462-14.462v-9.538h-16v9.538a30.5 30.5 0 0 0 30.462 30.462h1.538v16h16v-16h1.538a30.462 30.462 0 0 0 7.388-60.015l-8.926-2.231v-33.754h1.538a14.478 14.478 0 0 1 14.462 14.462v9.538zm-26.955 27.507a14.462 14.462 0 0 1 -3.507 28.493h-1.538v-29.754zm-21.045-21.753-5.045-1.261a14.462 14.462 0 0 1 3.507-28.493h1.538z" fill="#f99e0c"/><path d="m80 304.931v23.069h16v-23.069a59.111 59.111 0 0 1 12.382-36.031l-12.645-9.8a75.2 75.2 0 0 0 -15.737 45.831z" fill="#ffc261"/><path d="m124.773 236.377a74.732 74.732 0 0 0 -17.917 11.16l10.288 12.254a58.7 58.7 0 0 1 14.083-8.773z" fill="#ffc261"/></g></svg>