<svg height="512" viewBox="0 0 512 512" width="512" xmlns="http://www.w3.org/2000/svg"><g id="Flat"><path d="m88 352h32v104h-32z" fill="#e9d6bb"/><path d="m112 464h-56v-72l32-16v16h35.056a12.944 12.944 0 0 1 12.944 12.944 12.939 12.939 0 0 1 -1.367 5.789l-6.633 13.267v24a16 16 0 0 1 -16 16z" fill="#fdbf92"/><path d="m16 392h40v72h-40z" fill="#426887"/><path d="m216 224v176a163.924 163.924 0 0 0 -115.88-48h-12.12v-80h12.12a163.894 163.894 0 0 0 115.88-48z" fill="#f1ddc1"/><path d="m56 272h32a0 0 0 0 1 0 0v80a0 0 0 0 1 0 0h-32a16 16 0 0 1 -16-16v-48a16 16 0 0 1 16-16z" fill="#e25740"/><path d="m192 304v76.18a163.914 163.914 0 0 0 -16-9.55v-66.63z" fill="#e9d6bb"/><g fill="#f9e8d1"><path d="m240 304h32v16h-32z"/><path d="m238.111 240h35.777v16h-35.777z" transform="matrix(.894 -.447 .447 .894 -83.888 140.687)"/><path d="m244 361.578h16v28.844h-16z" transform="matrix(.555 -.832 .832 .555 -200.635 377.109)"/></g><path d="m192 24 21.741 30.862 34.259-15.857 3.397 37.598 37.598 3.397-15.857 34.259 30.862 21.741-30.862 21.741 15.857 34.259-37.598 3.397-3.397 37.598-34.259-15.857-37.741 62.862-5.741-62.862-34.259 15.857-3.397-37.598-37.598-3.397 15.857-34.259-30.862-21.741 30.862-21.741-15.857-34.259 37.598-3.397 3.397-37.598 34.259 15.857z" fill="#ffb431"/><path d="m135.431 127.999h113.137v16.001h-113.137z" fill="#f99e0c" transform="matrix(.707 -.707 .707 .707 -39.931 175.598)"/><path d="m164 128a20 20 0 1 0 -20-20 20.023 20.023 0 0 0 20 20zm0-24a4 4 0 1 1 -4 4 4 4 0 0 1 4-4z" fill="#f99e0c"/><path d="m220 144a20 20 0 1 0 20 20 20.023 20.023 0 0 0 -20-20zm0 24a4 4 0 1 1 4-4 4 4 0 0 1 -4 4z" fill="#f99e0c"/><path d="m304 296 27.188-13.594a8.705 8.705 0 0 0 4.812-7.787 8.705 8.705 0 0 0 -10.413-8.536l-29.587 5.917v24z" fill="#fdb683"/><path d="m392 376h-16l-12.4 13.64-41.484 51.76a35.864 35.864 0 0 1 -44.024 9.648 35.864 35.864 0 0 1 -19.649-35.625l13.572-136.547a15.983 15.983 0 0 1 1.854-6.041l19.376-35.749a16 16 0 0 1 8.124-7.232l23.029-9.211a8.46 8.46 0 0 1 11.602 7.857 8.46 8.46 0 0 1 -2.478 5.982l-21.522 21.518-8 32-8 112 26.05-47.76 12.85-23.564a32 32 0 0 1 28.1-16.676h28.76z" fill="#fdbf92"/><path d="m392 376h-16l-12.4 13.64-41.55-37.4 12.85-23.564a32 32 0 0 1 28.1-16.676h28.76z" fill="#d6513c"/><path d="m479.763 488v-144a32 32 0 0 0 -32-32v-30.239a284.553 284.553 0 0 1 12-81.761l6.544-21.811a129.4 129.4 0 0 0 5.456-37.179c0-36.814-28.855-67.73-65.648-68.97a67.771 67.771 0 0 0 -50.432 19.88c-.13.13-.27.27-.39.41a67.669 67.669 0 0 0 -19.53 47.67v12l-24 24 24 16v32a24 24 0 0 0 24 24h28a4 4 0 0 1 4 4v60l-49.407 77.641a42.161 42.161 0 0 0 -6.593 22.638 42.168 42.168 0 0 0 35.237 41.594l12.763 2.127v40" fill="#fdbf92"/><path d="m480 496-.237-152a32 32 0 0 0 -32-32h-9.69a115.79 115.79 0 0 1 -75.97 46.61l-19.75 31.03a42.168 42.168 0 0 0 28.64 64.23l12.77 2.13v40z" fill="#e25740"/><path d="m432 384h48v112h-48z" fill="#fdbf92"/><path d="m375.764 168a16 16 0 1 1 16-16 16.018 16.018 0 0 1 -16 16z" fill="#426887"/><path d="m488 250.5a100.527 100.527 0 0 1 -6.39 35.25l-9.85 26.25h-48l-3.66-42.33c0-64 11.68-93.67 11.68-93.67a16 16 0 1 0 -.02-32c-16.09-4.83-31.3-13.17-44.44-22.59a183.352 183.352 0 0 1 -32.03-29.08v-.02a67.535 67.535 0 0 1 17.56-12.89 66.725 66.725 0 0 1 16.4-5.86 67.684 67.684 0 0 1 14.41-1.56c37.76-.05 68.1 31.26 68.1 69.03v30.36a100.509 100.509 0 0 0 8.12 39.55 100.33 100.33 0 0 1 8.12 39.56z" fill="#426887"/><path d="m434.29 104.41-5.06 15.18c-7.95-2.65-16.61-7.11-25.71-13.25a164.8 164.8 0 0 1 -30.67-26.92 66.725 66.725 0 0 1 16.4-5.86 146.536 146.536 0 0 0 23.21 19.51c7.91 5.33 15.25 9.15 21.83 11.34z" fill="#395d7b"/><path d="m447.29 312h-19.38l3.55-4.53c21.92-36.95 16.43-81.98 16.37-82.44l15.87-2.07c.26 2 5.99 48.09-16.41 89.04z" fill="#395d7b"/><path d="m348.449 216h-12.685v-16h12.685a19.193 19.193 0 0 0 13.658-5.657l11.313 11.314a35.086 35.086 0 0 1 -24.971 10.343z" fill="#fcb079"/></g></svg>