<svg height="512" viewBox="0 0 512 512" width="512" xmlns="http://www.w3.org/2000/svg"><g id="Flat"><path d="m24 288h288v160h-288z" fill="#749148"/><path d="m24 344h288v16h-288z" fill="#678240"/><path d="m24 376h288v16h-288z" fill="#678240"/><path d="m24 408h288v16h-288z" fill="#678240"/><path d="m24 160h288v160h-288z" fill="#96b268"/><path d="m256 288h-176a24 24 0 0 0 -24-24v-48a24 24 0 0 0 24-24h176a24 24 0 0 0 24 24v48a24 24 0 0 0 -24 24z" fill="#88a35a"/><circle cx="168" cy="240" fill="#96b268" r="48"/><path d="m80 232h16v16h-16z" fill="#96b268"/><path d="m240 232h16v16h-16z" fill="#96b268"/><path d="m152 160h32v288h-32z" fill="#ffb431"/><path d="m152 320h32v128h-32z" fill="#f9a91b"/><path d="m344 352h128v48h-128z" fill="#ffb431"/><path d="m344 256h128v48h-128z" fill="#ffb431"/><path d="m360 400h128v48h-128z" fill="#fcab1e"/><path d="m360 304h128v48h-128z" fill="#fcab1e"/><path d="m360 208h128v48h-128z" fill="#fcab1e"/><path d="m368 376h16v24h-16z" fill="#f99e0c"/><path d="m400 376h16v24h-16z" fill="#f99e0c"/><path d="m432 376h16v24h-16z" fill="#f99e0c"/><path d="m368 280h16v24h-16z" fill="#f99e0c"/><path d="m400 280h16v24h-16z" fill="#f99e0c"/><path d="m432 280h16v24h-16z" fill="#f99e0c"/><circle cx="424" cy="144" fill="#ffb431" r="64"/><path d="m424 184a39.734 39.734 0 0 1 -28.284-11.717 40.141 40.141 0 0 1 -10.36-38.633l15.459 4.127a24.1 24.1 0 0 0 6.214 23.193 24 24 0 0 0 33.941 0l11.314 11.312a39.734 39.734 0 0 1 -28.284 11.718z" fill="#f99e0c"/><path d="m462.644 154.35-15.459-4.127a24.1 24.1 0 0 0 -6.214-23.193 24 24 0 0 0 -33.941 0l-11.314-11.312a40 40 0 0 1 56.568 0 40.141 40.141 0 0 1 10.36 38.632z" fill="#f99e0c"/><path d="m112 64h-16v24h-16v16h16v24h16v-24h16v-16h-16z" fill="#ffc261"/><path d="m344 96h-16v-24h-16v24h-16v16h16v24h16v-24h16z" fill="#ffc261"/><g fill="#f99e0c"><path d="m384 424h16v24h-16z"/><path d="m416 424h16v24h-16z"/><path d="m448 424h16v24h-16z"/><path d="m384 328h16v24h-16z"/><path d="m416 328h16v24h-16z"/><path d="m448 328h16v24h-16z"/><path d="m384 232h16v24h-16z"/><path d="m416 232h16v24h-16z"/><path d="m448 232h16v24h-16z"/></g></g></svg>