<svg height="512" viewBox="0 0 512 512" width="512" xmlns="http://www.w3.org/2000/svg"><g id="Flat"><rect fill="#426887" height="464" rx="32" transform="matrix(0 -1 1 0 32 480)" width="336" x="88" y="-8"/><path d="m88 32h336v384h-336z" fill="#4db6e4" transform="matrix(0 -1 1 0 32 480)"/><path d="m272 136a104 104 0 1 0 104 104h-104z" fill="#4aafdb"/><path d="m304 104v104h104a104 104 0 0 0 -104-104z" fill="#4aafdb"/><path d="m256 120a104 104 0 1 0 104 104h-104z" fill="#e25740"/><path d="m288 88v104h104a104 104 0 0 0 -104-104z" fill="#ffb431"/><g fill="#3ba5d3"><path d="m88 80h16v16h-16z"/><path d="m120 80h16v16h-16z"/><path d="m152 80h16v16h-16z"/><path d="m88 120h64v16h-64z"/><path d="m88 152h48v16h-48z"/><path d="m88 304h56v16h-56z"/><path d="m120 336h48v16h-48z"/><path d="m88 336h16v16h-16z"/><path d="m376 80h40v16h-40z"/><path d="m392 112h24v16h-24z"/></g><path d="m468 328a20 20 0 0 0 -20 20 20 20 0 0 0 -40 0 20 20 0 0 0 -40 0v-64a20 20 0 0 0 -40 0v116l-33.532-33.532a22.083 22.083 0 0 0 -15.615-6.468h-.77a22.083 22.083 0 0 0 -22.083 22.083 22.08 22.08 0 0 0 7.412 16.5l64.588 57.417h160v-108a20 20 0 0 0 -20-20z" fill="#fdc8a2"/><path d="m360 344h16v32h-16z" fill="#fdbf92"/><path d="m400 344h16v32h-16z" fill="#fdbf92"/><path d="m440 344h16v32h-16z" fill="#fdbf92"/></g></svg>