<svg height="512" viewBox="0 0 512 512" width="512" xmlns="http://www.w3.org/2000/svg"><g id="Flat"><path d="m24 88h464a0 0 0 0 1 0 0v400a0 0 0 0 1 0 0h-432a32 32 0 0 1 -32-32v-368a0 0 0 0 1 0 0z" fill="#4db6e4"/><path d="m56 24a32 32 0 0 0 -32 32v400a32 32 0 0 1 32-32h16v-400z" fill="#79c5e7"/><path d="m128 200h128v64h-128z" fill="#4aafdb"/><path d="m320 200h128v64h-128z" fill="#4aafdb"/><path d="m128 344h128v64h-128z" fill="#4aafdb"/><path d="m320 344h128v64h-128z" fill="#4aafdb"/><path d="m112 184h128v64h-128z" fill="#96b268"/><path d="m304 184h128v64h-128z" fill="#ffb431"/><path d="m112 328h128v64h-128z" fill="#e25740"/><path d="m304 328h128v64h-128z" fill="#348ed8"/><path d="m390.805 291.794a8 8 0 0 0 -6.805-3.794h-8v-40h-16v40h-8a8 8 0 0 0 -7.155 11.578l16 32a8 8 0 0 0 14.31 0l16-32a8 8 0 0 0 -.35-7.784z" fill="#3ba5d3"/><path d="m184 328v-40h8a8 8 0 0 0 7.155-11.578l-16-32a8 8 0 0 0 -14.31 0l-16 32a8 8 0 0 0 7.155 11.578h8v40z" fill="#3ba5d3"/><path d="m184 185.11c8.13-28.457 45.139-49.11 88-49.11 24.656 0 48.24 7.078 65.044 19.034l-1.732.9a8 8 0 0 0 -.988 13.574l28.987 20.969a8 8 0 0 0 12.689-6.615l-.617-35.771a8 8 0 0 0 -11.7-6.955l-11.032 5.755c-19.873-16.991-49.151-26.891-80.651-26.891-23.873 0-47.258 5.876-65.849 16.544-19.215 11.027-32.545 26.714-37.533 44.172l-.311 1.088 15.386 4.392z" fill="#3ba5d3"/><path d="m360 390.89c-8.13 28.457-45.139 49.11-88 49.11-24.656 0-48.24-7.078-65.044-19.034l1.732-.9a8 8 0 0 0 .988-13.574l-28.987-20.969a8 8 0 0 0 -12.689 6.615l.617 35.771a8 8 0 0 0 11.7 6.955l11.032-5.755c19.873 16.991 49.151 26.891 80.651 26.891 23.873 0 47.258-5.876 65.849-16.544 19.215-11.027 32.545-26.714 37.533-44.172l.311-1.088-15.386-4.396z" fill="#3ba5d3"/><path d="m272 24h144v32h-144z" fill="#348ed8"/><path d="m240 48 16 8h16v-32h-16l-16 8z" fill="#426887"/><path d="m240 48h-8a8 8 0 0 1 -8-8 8 8 0 0 1 8-8h8z" fill="#395d7b"/><path d="m472 48-8 8h-48v-32h48l8 8z" fill="#426887"/><path d="m400 24h16v32h-16z" fill="#2c86d1"/><g fill="#3ba5d3"><path d="m104 112h16v16h-16z"/><path d="m104 144h48v16h-48z"/><path d="m136 112h48v16h-48z"/><path d="m392 112h48v16h-48z"/><path d="m400 144h40v16h-40z"/><path d="m104 416h48v16h-48z"/><path d="m104 448h48v16h-48z"/><path d="m392 416h48v16h-48z"/><path d="m392 448h48v16h-48z"/><path d="m360 448h16v16h-16z"/></g></g></svg>