<svg height="512" viewBox="0 0 512 512" width="512" xmlns="http://www.w3.org/2000/svg"><g id="Flat"><path d="m336 488h56a32 32 0 0 0 32-32v-400a32 32 0 0 0 -32-32h-104" fill="#426887"/><path d="m24 96v-40a32 32 0 0 1 32-32h232l88 88v344a32 32 0 0 1 -32 32h-288a32 32 0 0 1 -32-32z" fill="#3ba5d3"/><path d="m288 24v56a32 32 0 0 0 32 32h56z" fill="#5cc1ed"/><path d="m288 152h32v184h-32z" fill="#96b268"/><path d="m224 200h32v136h-32z" fill="#96b268"/><path d="m160 248h32v88h-32z" fill="#96b268"/><path d="m96 288h32v48h-32z" fill="#96b268"/><g fill="#2d96c3"><path d="m104 64h120v16h-120z"/><path d="m56 64h32v16h-32z"/><path d="m160 96h64v16h-64z"/><path d="m56 96h88v16h-88z"/><path d="m56 432h88v16h-88z"/><path d="m160 432h24v16h-24z"/><path d="m56 400h128v16h-128z"/><path d="m264 400h80v16h-80z"/><path d="m216 400h32v16h-32z"/><path d="m216 432h128v16h-128z"/><path d="m88 144h64v16h-64z"/><path d="m88 176h64v16h-64z"/><path d="m344 344h-280a8 8 0 0 1 -8-8v-192h16v184h272z"/><path d="m56 360h16v16h-16z"/><path d="m88 360h16v16h-16z"/><path d="m120 360h16v16h-16z"/><path d="m152 360h16v16h-16z"/><path d="m184 360h16v16h-16z"/><path d="m216 360h16v16h-16z"/><path d="m248 360h16v16h-16z"/><path d="m280 360h16v16h-16z"/><path d="m312 360h16v16h-16z"/></g><path d="m356 260h232v32h-232z" fill="#348ed8" transform="matrix(0 -1 1 0 196 748)"/><path d="m456 392h32l-16 32z" fill="#ffb431"/><path d="m456 128h16a16 16 0 0 1 16 16 16 16 0 0 1 -16 16h-16a0 0 0 0 1 0 0v-32a0 0 0 0 1 0 0z" fill="#e25740" transform="matrix(0 -1 1 0 328 616)"/><path d="m456 160h32v32h-32z" fill="#f1ddc1" transform="matrix(0 -1 1 0 296 648)"/><path d="m464 168h16v32h-16z" fill="#e9d6bb" transform="matrix(0 -1 1 0 288 656)"/><path d="m456 192h32v16h-32z" fill="#3289d1"/></g></svg>