<svg height="512" viewBox="0 0 512 512" width="512" xmlns="http://www.w3.org/2000/svg"><g id="Flat"><path d="m410.078 176.066a31.877 31.877 0 0 0 -21.16 6.253 8.235 8.235 0 0 1 -4.908 1.681 8.01 8.01 0 0 1 -8.01-8.01v-63.99a24 24 0 0 0 -24-24h-63.99a8.01 8.01 0 0 1 -8.01-8.01 8.235 8.235 0 0 1 1.681-4.908 32 32 0 1 0 -51.352.014 8.2 8.2 0 0 1 1.671 4.891 8.01 8.01 0 0 1 -8.01 8.013h-63.99a24 24 0 0 0 -24 24v51.9a20.1 20.1 0 0 0 20.1 20.1h.162a20.826 20.826 0 0 0 10.937-3.235 32 32 0 1 1 -.1 54.41 20.493 20.493 0 0 0 -10.825-3.175h-.174a20.1 20.1 0 0 0 -20.1 20.1v59.9a16 16 0 0 0 16 16h59.894a20.106 20.106 0 0 0 20.106-20.106v-.161a20.826 20.826 0 0 0 -3.235-10.937 32 32 0 1 1 54.41.1 20.5 20.5 0 0 0 -3.175 10.831v.167a20.106 20.106 0 0 0 20.106 20.106h51.894a24 24 0 0 0 24-24v-63.99a8.01 8.01 0 0 1 8.01-8.01 8.2 8.2 0 0 1 4.891 1.671 32 32 0 1 0 21.174-57.6z" fill="#e25740"/><g fill="#ffb431"><path d="m48 200h17v16h-17z"/><path d="m81 200h39v16h-39z"/><path d="m464 200h32v16h-32z"/><path d="m396.849 332.177h15.999v27.581h-15.999z" transform="matrix(.674 -.738 .738 .674 -123.635 411.552)"/><path d="m92 37.351h16v54.396h-16z" transform="matrix(.678 -.735 .735 .678 -15.235 94.34)"/><path d="m54.415 21.188h16v17.447h-16z" transform="matrix(.678 -.735 .735 .678 -1.878 55.538)"/><path d="m382.059 40h67.882v16h-67.882z" transform="matrix(.707 -.707 .707 .707 87.891 308.201)"/><path d="m91.029 348h33.941v16h-33.941z" transform="matrix(.707 -.707 .707 .707 -220.09 180.623)"/><path d="m465.23 290.158h16v20.049h-16z" transform="matrix(.39 -.921 .921 .39 12.206 618.793)"/><path d="m416 253.256h16v52.131h-16z" transform="matrix(.39 -.921 .921 .39 1.391 560.744)"/><path d="m72 98.805h16v69.508h-16z" transform="matrix(.39 -.921 .921 .39 -74.187 155.112)"/><path d="m479.333 104.666h17.333v16h-17.333z" transform="matrix(.923 -.385 .385 .923 -5.793 196.368)"/><path d="m397.333 128h69.333v16h-69.333z" transform="matrix(.923 -.385 .385 .923 -19.078 176.598)"/><path d="m72.339 269.283h41.255v16h-41.255z" transform="matrix(.923 -.385 .385 .923 -99.692 57.258)"/><path d="m42.284 286.928h16.874v16h-16.874z" transform="matrix(.923 -.385 .385 .923 -109.758 42.338)"/><path d="m164 21.058h16v51.884h-16z" transform="matrix(.887 -.463 .463 .887 -2.233 84.892)"/><path d="m303.199 34.182h57.601v16h-57.601z" transform="matrix(.417 -.909 .909 .417 155.331 326.42)"/></g><path d="m359.047 371.523a109.153 109.153 0 0 0 -48.814-11.523 109.146 109.146 0 0 0 -56.158 15.555l-.742.445h-61.333a24 24 0 0 0 -24 24 24 24 0 0 0 24 24h-16l-90.967-41.667a26.144 26.144 0 0 0 -37.033 23.767v1.739a26.142 26.142 0 0 0 14.453 23.384l93.277 46.639a96 96 0 0 0 42.933 10.138h169.337v-112z" fill="#fdc8a2"/><path d="m368 376h96v112h-96z" fill="#426887"/><circle cx="408" cy="448" fill="#35546d" r="16"/><path d="m192 416h72v16h-72z" fill="#fdb683"/><path d="m352 144h-16v-12a4 4 0 0 0 -4-4h-12v-16h12a20.023 20.023 0 0 1 20 20z" fill="#d6513c"/></g></svg>