<svg height="512" viewBox="0 0 512 512" width="512" xmlns="http://www.w3.org/2000/svg"><g id="Flat"><path d="m184 432h144v32h-144z" fill="#3c6180"/><path d="m224 360-20.06 64.18-19.94 63.82h-32l23.57-75.41 16.43-52.59z" fill="#426887"/><path d="m360 488h-32l-19.94-63.82-20.06-64.18h32l16.43 52.59z" fill="#426887"/><path d="m192 360h32l-20.06 64.18a176.009 176.009 0 0 1 -28.37-11.59z" fill="#35546d"/><path d="m336.43 412.59a176.009 176.009 0 0 1 -28.37 11.59l-20.06-64.18h32z" fill="#35546d"/><circle cx="256" cy="240" fill="#f1ddc1" r="176"/><circle cx="256" cy="240" fill="#e25740" r="128"/><circle cx="256" cy="240" fill="#f1ddc1" r="80"/><circle cx="256" cy="240" fill="#e25740" r="32"/><path d="m40 72 32 32 40-8 8-40-32-32-8 40z" fill="#e25740"/><path d="m159.999 27.549h16.001v248.902h-16.001z" fill="#426887" transform="matrix(.707 -.707 .707 .707 -58.274 163.314)"/><g fill="#f1ddc1"><path d="m452.166 170.666a206.832 206.832 0 0 0 -41.128-69.331l11.922-10.67a222.757 222.757 0 0 1 44.292 74.669z"/><path d="m400.146 90.047c-4.281-4.116-8.791-8.1-13.4-11.828l10.065-12.438c4.964 4.018 9.819 8.3 14.428 12.733z"/><path d="m139.846 431.568a224.354 224.354 0 0 1 -58.065-50.76l12.438-10.065a208.431 208.431 0 0 0 53.935 47.157z"/></g></g></svg>