<svg id="Capa_1" enable-background="new 0 0 508.094 508.094" height="512" viewBox="0 0 508.094 508.094" width="512" xmlns="http://www.w3.org/2000/svg"><g><path d="m330.565 81.044h66.123v66h-66.123z" fill="#a79ba7"/><path d="m330.565 81.044h23.604v66h-23.604z" fill="#8c818f"/><path d="m493.828 392.638h-479.56v-221.579c0-15.929 12.913-28.843 28.843-28.843h421.875c15.929 0 28.843 12.913 28.843 28.843v221.579z" fill="#a79ba7"/><path d="m14.269 392.446 479.558.005c8.37 7.721 14.267 26.561 14.267 48.577v6.341c0 28.907-10.172 52.341-22.726 52.341h-462.639c-12.555 0-22.726-23.434-22.726-52.341v-6.341c0-22.015 5.897-40.855 14.267-48.577" fill="#7a6d79"/><g fill="#433f43"><path d="m297.676 240.805h-31.713c-3.839 0-6.951-3.112-6.951-6.951v-19.237c0-3.839 3.112-6.951 6.951-6.951h31.713c3.839 0 6.951 3.112 6.951 6.951v19.237c0 3.839-3.112 6.951-6.951 6.951z"/><path d="m444.844 240.805h-31.713c-3.839 0-6.951-3.112-6.951-6.951v-19.237c0-3.839 3.112-6.951 6.951-6.951h31.713c3.839 0 6.951 3.112 6.951 6.951v19.237c0 3.839-3.112 6.951-6.951 6.951z"/><path d="m371.26 240.805h-31.713c-3.839 0-6.951-3.112-6.951-6.951v-19.237c0-3.839 3.112-6.951 6.951-6.951h31.713c3.839 0 6.951 3.112 6.951 6.951v19.237c0 3.839-3.112 6.951-6.951 6.951z"/><path d="m298.609 300.907h-31.713c-3.839 0-6.951-3.112-6.951-6.951v-19.237c0-3.839 3.112-6.951 6.951-6.951h31.713c3.839 0 6.951 3.112 6.951 6.951v19.237c0 3.839-3.112 6.951-6.951 6.951z"/></g><path d="m445.924 359.915h-31.713c-3.839 0-6.951-3.112-6.951-6.951v-74.179c0-3.839 3.112-6.951 6.951-6.951h31.713c3.839 0 6.951 3.112 6.951 6.951v74.179c0 3.839-3.112 6.951-6.951 6.951z" fill="#fe646f"/><path d="m372.732 300.907h-31.712c-3.839 0-6.951-3.112-6.951-6.951v-19.237c0-3.839 3.112-6.951 6.951-6.951h31.713c3.839 0 6.951 3.112 6.951 6.951v19.237c-.001 3.839-3.113 6.951-6.952 6.951z" fill="#433f43"/><path d="m297.676 361.009h-31.713c-3.839 0-6.951-3.112-6.951-6.951v-19.237c0-3.839 3.112-6.951 6.951-6.951h31.713c3.839 0 6.951 3.112 6.951 6.951v19.237c0 3.839-3.112 6.951-6.951 6.951z" fill="#433f43"/><path d="m371.8 361.009h-31.713c-3.839 0-6.951-3.112-6.951-6.951v-19.237c0-3.839 3.112-6.951 6.951-6.951h31.713c3.839 0 6.951 3.112 6.951 6.951v19.237c0 3.839-3.112 6.951-6.951 6.951z" fill="#433f43"/><path d="m463.327 18.064v57.13c0 5.34-4.34 9.68-9.69 9.68h-179.94c-5.35 0-9.68-4.34-9.68-9.68v-57.13c0-5.35 4.33-9.68 9.68-9.68h179.94c5.35 0 9.69 4.33 9.69 9.68z" fill="#8ac9fe"/><path d="m208.715 43.08v133.744l-95.093-1.249-31.005-.409v-133.325c0-3.603 4.258-5.497 6.93-3.081l24.075 21.782 1.054.952c1.587 1.423 3.992 1.423 5.568 0l25.16-22.755c1.576-1.433 3.982-1.433 5.558 0l23.328 21.097c1.576 1.423 3.982 1.423 5.568 0l21.926-19.837c2.673-2.416 6.931-.522 6.931 3.081z" fill="#f9f3f1"/><path d="m205.172 339.83h-113.821c-6.78 0-12.276-5.496-12.276-12.276v-87.406c0-6.78 5.496-12.276 12.276-12.276h113.821c6.78 0 12.276 5.496 12.276 12.276v87.406c.001 6.779-5.496 12.276-12.276 12.276z" fill="#7a6d79"/><ellipse cx="74.236" cy="446.08" fill="#554e56" rx="20.922" ry="20.169"/><path d="m74.498 142.216c-16.306 0-29.521 13.215-29.521 29.521v220.903h-30.708v-220.904c0-16.306 13.215-29.521 29.521-29.521h30.708z" fill="#8c818f"/><path d="m53.432 499.709h-30.708c-12.549 0-22.724-23.43-22.724-52.336v-6.347c0-22.018 5.896-40.852 14.269-48.58h30.708c-8.373 7.728-14.269 26.562-14.269 48.58v6.347c0 28.906 10.175 52.336 22.724 52.336z" fill="#685e68"/><path d="m122.351 339.833h-30.708c-6.94 0-12.57-5.63-12.57-12.57v-86.822c0-6.94 5.63-12.57 12.57-12.57h30.708c-6.94 0-12.57 5.63-12.57 12.57v86.822c0 6.94 5.63 12.57 12.57 12.57z" fill="#685e68"/><path d="m113.323 60.276v115.299l-30.708-.409v-133.325c0-3.603 4.258-5.497 6.93-3.081z" fill="#e1d3ce"/><path d="m303.637 84.874h-29.94c-5.35 0-9.68-4.34-9.68-9.68v-57.13c0-5.35 4.33-9.68 9.68-9.68h29.94c-5.48 0-9.91 4.43-9.91 9.9v56.68c0 5.47 4.43 9.91 9.91 9.91z" fill="#60b7ff"/><path d="m237.526 189.784h-178.528c-4.142 0-7.5-3.357-7.5-7.5s3.358-7.5 7.5-7.5h178.528c4.142 0 7.5 3.357 7.5 7.5s-3.358 7.5-7.5 7.5z" fill="#554e56"/><path d="m439.764 453.58h-304.354c-4.142 0-7.5-3.357-7.5-7.5s3.358-7.5 7.5-7.5h304.354c4.142 0 7.5 3.357 7.5 7.5s-3.358 7.5-7.5 7.5z" fill="#554e56"/></g></svg>