<svg width="48" height="48" xmlns="http://www.w3.org/2000/svg">

 <g>
  <title>background</title>
  <rect fill="none" id="canvas_background" height="50" width="50" y="-1" x="-1"/>
 </g>
 <g>
  <title>Layer 1</title>
  <g id="svg_1" fill="#D1C4E9">
   <path id="svg_2" d="m38,7l-28,0c-1.1,0 -2,0.9 -2,2l0,6c0,1.1 0.9,2 2,2l28,0c1.1,0 2,-0.9 2,-2l0,-6c0,-1.1 -0.9,-2 -2,-2z"/>
   <path id="svg_3" d="m38,19l-28,0c-1.1,0 -2,0.9 -2,2l0,6c0,1.1 0.9,2 2,2l28,0c1.1,0 2,-0.9 2,-2l0,-6c0,-1.1 -0.9,-2 -2,-2z"/>
   <path id="svg_4" d="m38,31l-28,0c-1.1,0 -2,0.9 -2,2l0,6c0,1.1 0.9,2 2,2l28,0c1.1,0 2,-0.9 2,-2l0,-6c0,-1.1 -0.9,-2 -2,-2z"/>
  </g>
  <g id="svg_21">
   <path id="svg_16" d="m44.63709,25.87339l-2.56576,-2.44704c-0.36654,-0.34958 -1.00798,-0.34958 -1.46615,0l-1.19125,1.13612l4.03191,3.84534l1.19125,-1.13612c0.36654,-0.34958 0.36654,-0.96134 0,-1.39831z" fill="#E57373"/>
   <rect id="svg_17" height="6.2" width="17.4" fill="#FF9800" transform="matrix(0.647854, -0.617876, 0.647854, 0.617876, -6.84348, 38.3138)" y="24.59692" x="26.24873"/>
   <rect id="svg_18" height="6.2" width="3.1" fill="#B0BEC5" transform="matrix(-0.647854, 0.617876, -0.647854, -0.617876, 95.698, 25.9397)" y="38.30308" x="42.35127"/>
   <polygon id="svg_19" points="26.126973271369934,37.322022035717964 24.752453923225403,42.390877321362495 30.067242741584778,41.07997186481953 " fill="#FFC107"/>
   <polygon id="svg_20" points="25.39389717578888,39.76905496418476 24.752453923225403,42.390877321362495 27.5014830827713,41.77911813557148 " fill="#37474F"/>
  </g>
 </g>
</svg>