<svg height="512" viewBox="0 0 512 512" width="512" xmlns="http://www.w3.org/2000/svg"><g id="Flat"><path d="m88 216h336v192h-336z" fill="#749148"/><path d="m88 136h336v176h-336z" fill="#8da662"/><path d="m88 368h336v16h-336z" fill="#678240"/><path d="m88 336h336v16h-336z" fill="#678240"/><path d="m88 136h288a0 0 0 0 1 0 0v152a24 24 0 0 1 -24 24h-264a0 0 0 0 1 0 0v-176a0 0 0 0 1 0 0z" fill="#96b268"/><path d="m144 168a24 24 0 0 1 -24 24v64a24 24 0 0 1 24 24h232v-112z" fill="#88a35a"/><circle cx="256" cy="224" fill="#96b268" r="56"/><path d="m344 264h8a24 24 0 0 1 24 24 24 24 0 0 1 -24 24 24 24 0 0 0 24-24v-176a24 24 0 0 0 -24-24h-8z" fill="#a1b87b"/><path d="m152 216h16v16h-16z" fill="#96b268"/><path d="m232 136h48v272h-48z" fill="#ffb431"/><path d="m232 312h48v96h-48z" fill="#f9a91b"/><path d="m280 312h24v96h-24z" fill="#678240"/><path d="m280 136h24v176h-24z" fill="#88a35a"/><path d="m280 168h24v112h-24z" fill="#7f9954"/><g fill="#ffb431"><path d="m16 216h48v16h-48z"/><path d="m77.92 32.384h16v89.991h-16z" transform="matrix(.653 -.757 .757 .653 -28.789 91.932)"/><path d="m24 20.334h16v21.125h-16z" transform="matrix(.653 -.757 .757 .653 -12.295 34.96)"/><path d="m248 48h16v64h-16z"/><path d="m248 16h16v16h-16z"/><path d="m161.385 39.078h16v69.578h-16z" transform="matrix(.866 -.5 .5 .866 -14.247 94.53)"/><path d="m132.615 14.764h16v18.472h-16z" transform="matrix(.866 -.5 .5 .866 6.821 73.475)"/><path d="m32 111.751h16v51.698h-16z" transform="matrix(.371 -.928 .928 .371 -102.614 123.635)"/><path d="m448 216h48v16h-48z"/><path d="m390.366 65.931h79.429v16h-79.429z" transform="matrix(.757 -.653 .653 .757 56.061 298.752)"/><path d="m469.438 22.897h21.125v16h-21.125z" transform="matrix(.757 -.653 .653 .757 96.278 320.917)"/><path d="m342.455 45.867h23.398v16h-23.398z" transform="matrix(.5 -.866 .866 .5 130.519 333.713)"/><path d="m362.149 16h18.472v16h-18.472z" transform="matrix(.5 -.866 .866 .5 165.018 333.702)"/><path d="m446.151 129.6h51.698v16h-51.698z" transform="matrix(.928 -.371 .371 .928 -17.344 185.14)"/><path d="m464 284.551h16v51.698h-16z" transform="matrix(.371 -.928 .928 .371 8.503 633.36)"/><path d="m21.438 409.104h21.125v16h-21.125z" transform="matrix(.757 -.653 .653 .757 -264.589 122.087)"/><path d="m14.151 302.4h51.698v16h-51.698z" transform="matrix(.928 -.371 .371 .928 -112.406 37.05)"/></g><path d="m261.333 376h-61.333a24 24 0 0 0 -24 24 24 24 0 0 0 24 24h-16l-90.967-41.667a26.143 26.143 0 0 0 -25.248 1.921 26.145 26.145 0 0 0 -11.785 21.846v1.739a26.142 26.142 0 0 0 14.453 23.384l93.277 46.639a96 96 0 0 0 42.933 10.138h169.337v-112l-8.953-4.477a109.153 109.153 0 0 0 -48.814-11.523 109.155 109.155 0 0 0 -56.158 15.555z" fill="#fdc8a2"/><path d="m376 376h120v112h-120z" fill="#426887"/><circle cx="416" cy="448" fill="#35546d" r="16"/><path d="m200 416h64v16h-64z" fill="#fdb683"/></g></svg>