<svg height="512" viewBox="0 0 512 512" width="512" xmlns="http://www.w3.org/2000/svg"><g id="Flat"><path d="m432 381.27v114.73h-352v-114.73a56.018 56.018 0 0 1 44.27-54.76l67.73-14.51 24-24v-32h80v32l24 24 67.73 14.51a56.018 56.018 0 0 1 44.27 54.76z" fill="#fdc8a2"/><path d="m296 256v27.89a72.116 72.116 0 0 1 -80 0v-27.89z" fill="#fdbf92"/><path d="m432 381.27v114.73h-352v-114.73a56.02 56.02 0 0 1 44.27-54.76l67.73-14.51 24-24 40 32 40-32 24 24 67.73 14.51a55.993 55.993 0 0 1 44.27 54.76z" fill="#e4d1b7"/><path d="m256 280a72.171 72.171 0 0 1 -61.2-33.92l-1.84-2.944a111.579 111.579 0 0 1 -16.96-59.136v-48a80 80 0 0 1 80-80 80 80 0 0 1 80 80v48a111.579 111.579 0 0 1 -16.96 59.136l-1.84 2.944a72.171 72.171 0 0 1 -61.2 33.92z" fill="#fdc8a2"/><path d="m214 168a14 14 0 1 1 14-14 14.015 14.015 0 0 1 -14 14z" fill="#3c6180"/><path d="m298 168a14 14 0 1 1 14-14 14.015 14.015 0 0 1 -14 14z" fill="#3c6180"/><path d="m172 184h4v-56h-4a28 28 0 0 0 -28 28 28 28 0 0 0 28 28z" fill="#fdbf92"/><path d="m340 128h-4v56h4a28 28 0 0 0 28-28 28 28 0 0 0 -28-28z" fill="#fdbf92"/><path d="m208 72a64 64 0 0 1 -25.6 51.2l-6.4 4.8v-48a32 32 0 0 1 32-32z" fill="#3c6180"/><path d="m304 72a64 64 0 0 0 25.6 51.2l6.4 4.8v-48a32 32 0 0 0 -32-32z" fill="#3c6180"/><path d="m304 48v24h-96a53.9 53.9 0 0 1 -24-44.84v-3.16h86.7a35.1 35.1 0 0 1 33.3 24z" fill="#426887"/><path d="m289.45 72h-19.24l-32-48h19.24z" fill="#395d7b"/><path d="m249.57 72h-19.27l-32.22-48h19.27z" fill="#395d7b"/><path d="m248.732 232c-3.117 0-6.287-.129-9.467-.422l1.47-15.933c21.955 2.026 44.518-5.335 44.743-5.41l5.052 15.181a146.88 146.88 0 0 1 -41.798 6.584zm7.268-32h-16v-40h16z" fill="#fcb079"/><g fill="#d8c6ad"><path d="m128 444.725c-6.612-9.66-12.961-22.685-16.572-31.7l-14.855 5.944c1.609 4.031 15.143 36.953 31.427 49.368v27.663h16v-80h-16z"/><path d="m134.51 395.35-13.02 9.3-35.17-49.23a56.32 56.32 0 0 1 9.95-13.61z"/><path d="m425.68 355.42-35.17 49.23-13.02-9.3 38.24-53.54a56.32 56.32 0 0 1 9.95 13.61z"/><path d="m384 443.937v-27.937h-16v80h16v-27.913c16.108-13.157 29.772-45.139 31.385-49.01l-14.769-6.156a190.054 190.054 0 0 1 -16.616 31.016z"/></g><path d="m256 320-24 40 8 16h32l8-16z" fill="#517694"/><path d="m272 376h-32l-8 120h48z" fill="#426887"/><path d="m216 288-24 24 40 48 24-40z" fill="#f9e4c8"/><path d="m296 288-40 32 24 40 40-48z" fill="#f9e4c8"/></g></svg>