<svg height="512" viewBox="0 0 512 512" width="512" xmlns="http://www.w3.org/2000/svg"><g id="Flat"><path d="m48 112h408a32 32 0 0 1 32 32v312a32 32 0 0 1 -32 32h-400a32 32 0 0 1 -32-32v-320a24 24 0 0 1 24-24z" fill="#278db9"/><path d="m456 456h-400a32 32 0 0 1 -32-32v-320a24 24 0 0 1 24-24h408a32 32 0 0 1 32 32v312a32 32 0 0 1 -32 32z" fill="#2f9ccb"/><rect fill="#3ba5d3" height="376" rx="32" width="464" x="24" y="48"/><path d="m392 424h-336a32 32 0 0 1 -32-32v-312a32 32 0 0 1 32-32h400a32 32 0 0 1 32 32v248z" fill="#4db6e4"/><path d="m392 424v-64a32 32 0 0 1 32-32h64z" fill="#5cc1ed"/><path d="m488 128h-464v-48a32 32 0 0 1 32-32h400a32 32 0 0 1 32 32z" fill="#e25740"/><path d="m248 16h16v64h-16z" fill="#f1ddc1"/><path d="m184 16h16v64h-16z" fill="#f1ddc1"/><path d="m120 16h16v64h-16z" fill="#f1ddc1"/><path d="m56 16h16v64h-16z" fill="#f1ddc1"/><path d="m440 16h16v64h-16z" fill="#f1ddc1"/><path d="m376 16h16v64h-16z" fill="#f1ddc1"/><path d="m312 16h16v64h-16z" fill="#f1ddc1"/><path d="m248 56h16v24h-16z" fill="#e4d1b7"/><path d="m184 56h16v24h-16z" fill="#e4d1b7"/><path d="m120 56h16v24h-16z" fill="#e4d1b7"/><path d="m56 56h16v24h-16z" fill="#e4d1b7"/><path d="m440 56h16v24h-16z" fill="#e4d1b7"/><path d="m376 56h16v24h-16z" fill="#e4d1b7"/><path d="m312 56h16v24h-16z" fill="#e4d1b7"/><g fill="#3ba5d3"><rect height="48" rx="8" width="48" x="232" y="168"/><rect height="48" rx="8" width="48" x="152" y="168"/><rect height="48" rx="8" width="48" x="392" y="168"/><rect height="48" rx="8" width="48" x="312" y="168"/><rect height="48" rx="8" width="48" x="232" y="248"/><rect height="48" rx="8" width="48" x="152" y="248"/><rect height="48" rx="8" width="48" x="72" y="248"/><rect height="48" rx="8" width="48" x="392" y="248"/><rect height="48" rx="8" width="48" x="312" y="248"/><rect height="48" rx="8" width="48" x="232" y="328"/><rect height="48" rx="8" width="48" x="152" y="328"/><rect height="48" rx="8" width="48" x="72" y="328"/><rect height="32" rx="4" width="32" x="320" y="336"/><rect height="32" rx="4" width="32" x="80" y="176"/></g></g></svg>