<svg height="512" viewBox="0 0 512 512" width="512" xmlns="http://www.w3.org/2000/svg"><g id="Flat"><path d="m416 80h-320l24-56h272z" fill="#3c6180"/><path d="m72 80h368v56h-368z" fill="#426887"/><path d="m416 136-2.73 24-30 264-2.72 24-4.55 40h-240l-4.55-40-2.72-24-30-264-2.73-24z" fill="#f1ddc1"/><path d="m400 424h-288l-32-240h352z" fill="#ffb431"/><g fill="#f99e0c"><path d="m248 208h16v192h-16z"/><path d="m204 207.917h16v192.167h-16z" transform="matrix(.999 -.042 .042 .999 -12.472 9.089)"/><path d="m164 207.917h16v192.167h-16z" transform="matrix(.999 -.042 .042 .999 -12.507 7.424)"/><path d="m125.25 237.29h16v163.42h-16z" transform="matrix(.991 -.132 .132 .991 -40.81 20.303)"/><path d="m112.666 207.972h16.001v16.055h-16.001z" transform="matrix(.997 -.083 .083 .997 -17.517 10.764)"/><path d="m283.253 296h193.494v16h-193.494z" transform="matrix(.124 -.992 .992 .124 31.219 643.364)"/><path d="m243.917 296h192.167v16h-192.167z" transform="matrix(.042 -.999 .999 .042 22.111 631.051)"/><path d="m203.917 296h192.167v16h-192.167z" transform="matrix(.042 -.999 .999 .042 -16.224 591.086)"/></g><path d="m416 136-2.73 24h-314.54l-2.73-24z" fill="#e9d6bb"/><path d="m383.27 424-2.72 24h-249.1l-2.72-24z" fill="#e9d6bb"/></g></svg>