<svg height="512" viewBox="0 0 512 512" width="512" xmlns="http://www.w3.org/2000/svg"><g id="Flat"><path d="m391.76 391.77 22.63 22.63-60.29 6.69-41.53 4.62 5.4-48.62 5.91-53.2 28.29 28.28a136.021 136.021 0 0 0 -164.83-213.59l6.43-57.94-21.1 2.35a192.016 192.016 0 0 1 219.09 308.78z" fill="#348ed8"/><path d="m354.1 421.09a192 192 0 0 1 -111.92 26.42h-.01a191.994 191.994 0 0 1 -121.93-327.27l-28.29-28.28 80.72-8.97 21.1-2.35-6.43 57.94-4.88 43.88-22.63-22.62a136.021 136.021 0 0 0 158.14 217.25l-5.4 48.62z" fill="#96b268"/><path d="m391.81 263.03a135.98 135.98 0 0 0 -142.84-142.84 127.376 127.376 0 0 1 20.84-55.68 192.012 192.012 0 0 1 177.7 177.66 127.189 127.189 0 0 1 -55.7 20.86z" fill="#2c86d1"/><path d="m263.03 391.82a127.259 127.259 0 0 1 -20.85 55.69h-.01a192.034 192.034 0 0 1 -177.68-177.68 127.189 127.189 0 0 1 55.7-20.86 135.98 135.98 0 0 0 142.84 142.85z" fill="#8da662"/><circle cx="376" cy="136" fill="#ffb431" r="112"/><g fill="#f99e0c"><path d="m392.677 206.042a72.013 72.013 0 0 1 -59.977-127.589l-9.628-12.78a88.027 88.027 0 0 0 90.02 150.147l-6.732-14.52a72.665 72.665 0 0 1 -13.683 4.742z"/><path d="m461.607 115.617a88.071 88.071 0 0 0 -122.7-59.437l6.733 14.52a72.02 72.02 0 0 1 73.66 122.847l9.628 12.78a88.038 88.038 0 0 0 32.679-90.71z"/><path d="m368 80v16a24 24 0 0 0 0 48h16a8 8 0 0 1 0 16h-32v16h16v16h16v-16a24 24 0 0 0 0-48h-16a8 8 0 0 1 0-16h32v-16h-16v-16z"/><path d="m320 128h16v16h-16z"/><path d="m416 128h16v16h-16z"/></g><circle cx="136" cy="376" fill="#ffb431" r="112"/><path d="m136 464.01a88.023 88.023 0 0 1 -52.932-158.337l9.628 12.78a72.027 72.027 0 0 0 73.664 122.847l6.728 14.516a88.553 88.553 0 0 1 -37.088 8.194z" fill="#f99e0c"/><path d="m188.932 446.327-9.628-12.78a72.027 72.027 0 0 0 -73.664-122.847l-6.728-14.52a88.021 88.021 0 0 1 90.02 150.147z" fill="#f99e0c"/><path d="m136 336a16.019 16.019 0 0 1 16 16h16a32 32 0 0 0 -64 0h-16v16h16v16h-16v16h16a32 32 0 0 0 64 0h-16a16 16 0 0 1 -32 0h16v-16h-16v-16h16v-16h-16a16.019 16.019 0 0 1 16-16z" fill="#f99e0c"/><path d="m176 368h16v16h-16z" fill="#f99e0c"/></g></svg>