<svg height="512" viewBox="0 0 512 512" width="512" xmlns="http://www.w3.org/2000/svg"><g id="Flat"><rect fill="#35546d" height="464" rx="32" width="336" x="88" y="24"/><path d="m88 64h336v384h-336z" fill="#4db6e4"/><path d="m153.37 374.63-41.37 41.37a76.354 76.354 0 0 1 11.35 69.95l-.68 2.05h-98.67v-64a160 160 0 0 1 64-128v80l33.37-33.37a22.627 22.627 0 1 1 32 32z" fill="#fdc8a2"/><path d="m59.029 380h33.941v16h-33.941z" fill="#fdbf92" transform="matrix(.707 -.707 .707 .707 -252.107 167.397)"/><rect fill="#4aafdb" height="40" rx="20" width="80" x="224" y="104"/><path d="m264 216-40-24 40-24 40 24z" fill="#4aafdb"/><path d="m224 240h80v48h-80z" fill="#4aafdb"/><rect fill="#4aafdb" height="40" rx="20" width="80" x="224" y="352"/><path d="m344 176h-80v-40h-16v208h16v-24h80a8 8 0 0 0 8-8v-128a8 8 0 0 0 -8-8zm-8 128h-72v-112h72z" fill="#3ba5d3"/><rect fill="#96b268" height="40" rx="20" width="80" x="216" y="96"/><path d="m256 208-40-24 40-24 40 24z" fill="#ffb431"/><path d="m216 232h80v48h-80z" fill="#e25740"/><rect fill="#348ed8" height="40" rx="20" width="80" x="216" y="344"/><path d="m468 360a20 20 0 0 0 -20 20 20 20 0 0 0 -40 0 20 20 0 0 0 -40 0v-64a20 20 0 0 0 -40 0v116l-33.532-33.532a22.083 22.083 0 0 0 -15.615-6.468h-.77a22.083 22.083 0 0 0 -22.083 22.083 22.08 22.08 0 0 0 7.412 16.5l64.588 57.417h160v-108a20 20 0 0 0 -20-20z" fill="#fdc8a2"/><path d="m360 376h16v32h-16z" fill="#fdbf92"/><path d="m400 376h16v32h-16z" fill="#fdbf92"/><path d="m440 376h16v32h-16z" fill="#fdbf92"/><g fill="#3ba5d3"><path d="m112 88h16v16h-16z"/><path d="m144 88h16v16h-16z"/><path d="m176 88h16v16h-16z"/><path d="m328 96h48v16h-48z"/><path d="m328 128h48v16h-48z"/><path d="m136 160h48v16h-48z"/><path d="m136 192h48v16h-48z"/><path d="m136 232h48v16h-48z"/><path d="m136 264h48v16h-48z"/></g><path d="m88 64h336v16h-336z" fill="#4aafdb"/></g></svg>