<svg height="512" viewBox="0 0 512 512" width="512" xmlns="http://www.w3.org/2000/svg"><g id="Flat"><path d="m272 136h-16l16 48-64-48h-80a24 24 0 0 1 -24-24v-64a24 24 0 0 1 24-24h144a24 24 0 0 1 24 24v64a24 24 0 0 1 -24 24z" fill="#4db6e4"/><g fill="#3ba5d3"><path d="m184 56h80v16h-80z"/><path d="m136 56h32v16h-32z"/><path d="m136 88h128v16h-128z"/></g><path d="m344 416h144v-176h-152.6a32 32 0 0 0 -30.5 22.3l-48.9 153.7h56l32-104z" fill="#f1ddc1"/><path d="m432 416h-32l8-152-16-24h48l-16 24z" fill="#426887"/><path d="m448 240h-64v-32h-16a16 16 0 0 1 -16-16v-32h-24l24-64h96z" fill="#fdc8a2"/><path d="m448 128-24-32h-72a35.1 35.1 0 0 1 -24-33.3v-6.7h88a32 32 0 0 1 32 32z" fill="#426887"/><path d="m388 144a12 12 0 1 1 12-12 12.013 12.013 0 0 1 -12 12z" fill="#426887"/><path d="m364.687 184h-12.687v-16h12.687a19.187 19.187 0 0 0 13.656-5.657l11.314 11.314a35.085 35.085 0 0 1 -24.97 10.343z" fill="#fcb079"/><path d="m128 360h360v128h-360z" fill="#e25740"/><path d="m328 488h-96l48-96h96z" fill="#4db6e4"/><path d="m48 296v-96a40 40 0 0 1 40-40h48v24l-34.63 5.772a16 16 0 0 0 -13.37 15.782v50.446a40 40 0 0 1 -40 40z" fill="#f9a91b"/><path d="m216 216-16 16v24a16 16 0 0 1 -16 16h-24v40h-56v-127.153c0-26.6 21.761-49.04 48.359-48.846a47.993 47.993 0 0 1 47.641 47.999v16z" fill="#fdc8a2"/><path d="m191.31 156.45c-27.99 36.02-66.07 50.63-87.31 56.27v-28.72a48.01 48.01 0 0 1 87.31-27.55z" fill="#ffb431"/><path d="m176 204a12 12 0 1 0 -12 12 12.013 12.013 0 0 0 12-12z" fill="#426887"/><path d="m187.313 232a19.187 19.187 0 0 1 -13.656-5.657l-11.314 11.314a35.085 35.085 0 0 0 24.97 10.343h12.687v-16z" fill="#fcb079"/><path d="m184 488h-120v-152a24 24 0 0 1 24-24h104.474a32 32 0 0 1 30.543 22.455l32.983 105.545h48v48h-70.274a24 24 0 0 1 -22.939-16.942l-26.787-87.058z" fill="#f1ddc1"/><path d="m304 440h24a32 32 0 0 1 32 32v16a0 0 0 0 1 0 0h-56a0 0 0 0 1 0 0v-48a0 0 0 0 1 0 0z" fill="#fdc8a2"/><path d="m160 488h-136v-112a24 24 0 0 1 24-24h74.658a24 24 0 0 1 23.836 21.2z" fill="#348ed8"/></g></svg>