<svg height="512" viewBox="0 0 512 512" width="512" xmlns="http://www.w3.org/2000/svg"><g id="Flat"><path d="m80 56h384v288h-384z" fill="#348ed8"/><path d="m56 24h432v32h-432z" fill="#426887"/><path d="m56 344h432v32h-432z" fill="#426887"/><path d="m400 280h-32v-152h-16l32-32 32 32h-16z" fill="#96b268"/><path d="m304 160h32v120h-32z" fill="#96b268"/><path d="m240 208h32v72h-32z" fill="#96b268"/><path d="m176 232h32v48h-32z" fill="#96b268"/><g fill="#2b83cc"><path d="m104 80h16v16h-16z"/><path d="m136 80h16v16h-16z"/><path d="m168 80h16v16h-16z"/><path d="m200 80h16v16h-16z"/><path d="m184 304h16v16h-16z"/><path d="m384 304h24v16h-24z"/><path d="m352 304h16v16h-16z"/><path d="m152 272h264v16h-264z"/></g><path d="m80 56h384v16h-384z" fill="#3289d1"/><path d="m224 344-19.349 72-36.332-84.624a32 32 0 0 0 -29.405-19.376h-114.914v176h120v-80l21.926 54.816a40.064 40.064 0 0 0 37.198 25.184 40.063 40.063 0 0 0 38.007-27.394l38.869-116.606z" fill="#f1ddc1"/><path d="m24 312h64v-32h16a16 16 0 0 0 16-16v-32h24l-24-64h-96z" fill="#fdc8a2"/><path d="m24 200 24-32h72a35.1 35.1 0 0 0 24-33.3v-6.7h-88a32 32 0 0 0 -32 32z" fill="#426887"/><path d="m84 216a12 12 0 1 1 12-12 12.013 12.013 0 0 1 -12 12z" fill="#426887"/><path d="m120 256h-12.687a35.082 35.082 0 0 1 -24.97-10.343l11.314-11.314a19.185 19.185 0 0 0 13.656 5.657h12.687z" fill="#fcb079"/><path d="m56 464 16 24 16-24-8-128 16-24h-48l16 24z" fill="#426887"/><path d="m312 312h-48v-10.319a13.681 13.681 0 0 0 -13.681-13.681 13.68 13.68 0 0 0 -13.154 9.922l-13.165 46.078h56a32 32 0 0 0 32-32z" fill="#fdc8a2"/><path d="m104 392h40v16h-40z" fill="#e9d6bb"/></g></svg>