<svg height="512" viewBox="0 0 512 512" width="512" xmlns="http://www.w3.org/2000/svg"><g id="Flat"><rect fill="#324f66" height="336" rx="32" width="464" x="24" y="72"/><path d="m432 72h24v288h-24z" fill="#2d475c"/><path d="m456 408h-400a32 32 0 0 1 -32-32v-16h464v16a32 32 0 0 1 -32 32z" fill="#426887"/><path d="m320 488h-128l16.8-56 7.2-24h80l7.2 24z" fill="#3c6180"/><path d="m168 464h176v24h-176z" fill="#426887"/><path d="m408 24h-304a24 24 0 0 0 -24 24v312h352v-312a24 24 0 0 0 -24-24z" fill="#4db6e4"/><path d="m80 336h352v24h-352z" fill="#4aafdb"/><g fill="#3ba5d3"><path d="m104 48h16v16h-16z"/><path d="m136 48h16v16h-16z"/><path d="m168 48h16v16h-16z"/><path d="m163.363 330.471a161.465 161.465 0 0 1 -48.3-54.675l14.086-7.59a145.369 145.369 0 0 0 43.492 49.226z"/><path d="m377.268 122.312a144.577 144.577 0 0 0 -56.894-51.159l7.162-14.306a160.562 160.562 0 0 1 63.2 56.821z"/><path d="m104 80h56v16h-56z"/></g><path d="m303.2 432h-94.4l7.2-24h80z" fill="#395d7b"/><path d="m384 192h-13.026a8 8 0 0 1 -7.609-5.55 95.524 95.524 0 0 0 -5.908-14.221 7.951 7.951 0 0 1 1.492-9.237l9.218-9.218a8 8 0 0 0 0-11.313l-22.628-22.628a8 8 0 0 0 -11.313 0l-9.218 9.218a7.949 7.949 0 0 1 -9.237 1.492 95.268 95.268 0 0 0 -14.221-5.908 8 8 0 0 1 -5.55-7.609v-13.026a8 8 0 0 0 -8-8h-32a8 8 0 0 0 -8 8v13.026a8 8 0 0 1 -5.55 7.609 95.312 95.312 0 0 0 -14.221 5.908 7.949 7.949 0 0 1 -9.237-1.492l-9.218-9.218a8 8 0 0 0 -11.313 0l-22.628 22.628a8 8 0 0 0 0 11.313l9.218 9.218a7.949 7.949 0 0 1 1.492 9.237 95.312 95.312 0 0 0 -5.908 14.221 8 8 0 0 1 -7.609 5.55h-13.026a8 8 0 0 0 -8 8v32a8 8 0 0 0 8 8h13.026a8 8 0 0 1 7.609 5.55 95.312 95.312 0 0 0 5.908 14.221 7.949 7.949 0 0 1 -1.492 9.237l-9.218 9.218a8 8 0 0 0 0 11.313l22.628 22.628a8 8 0 0 0 11.313 0l9.218-9.218a7.949 7.949 0 0 1 9.237-1.492 95.312 95.312 0 0 0 14.221 5.908 8 8 0 0 1 5.55 7.609v13.026a8 8 0 0 0 8 8h32a8 8 0 0 0 8-8v-13.026a8 8 0 0 1 5.55-7.609 95.268 95.268 0 0 0 14.221-5.908 7.949 7.949 0 0 1 9.237 1.492l9.218 9.218a8 8 0 0 0 11.313 0l22.628-22.628a8 8 0 0 0 0-11.313l-9.218-9.218a7.951 7.951 0 0 1 -1.492-9.237 95.524 95.524 0 0 0 5.908-14.221 8 8 0 0 1 7.609-5.55h13.026a8 8 0 0 0 8-8v-32a8 8 0 0 0 -8-8zm-112 56a32 32 0 1 1 32-32 32 32 0 0 1 -32 32z" fill="#4aafdb"/><path d="m368 176h-13.026a8 8 0 0 1 -7.609-5.55 95.48 95.48 0 0 0 -5.908-14.221 7.951 7.951 0 0 1 1.492-9.237l9.218-9.218a8 8 0 0 0 0-11.313l-22.628-22.628a8 8 0 0 0 -11.313 0l-9.218 9.218a7.951 7.951 0 0 1 -9.237 1.492 95.378 95.378 0 0 0 -14.221-5.909 8 8 0 0 1 -5.55-7.608v-13.026a8 8 0 0 0 -8-8h-32a8 8 0 0 0 -8 8v13.026a8 8 0 0 1 -5.55 7.608 95.422 95.422 0 0 0 -14.221 5.909 7.951 7.951 0 0 1 -9.237-1.492l-9.218-9.218a8 8 0 0 0 -11.313 0l-22.628 22.628a8 8 0 0 0 0 11.313l9.218 9.218a7.949 7.949 0 0 1 1.492 9.237 95.268 95.268 0 0 0 -5.908 14.221 8 8 0 0 1 -7.609 5.55h-13.026a8 8 0 0 0 -8 8v32a8 8 0 0 0 8 8h13.026a8 8 0 0 1 7.609 5.55 95.3 95.3 0 0 0 5.908 14.22 7.949 7.949 0 0 1 -1.492 9.237l-9.218 9.218a8 8 0 0 0 0 11.314l22.628 22.627a8 8 0 0 0 11.313 0l9.218-9.218a7.951 7.951 0 0 1 9.237-1.492 95.422 95.422 0 0 0 14.221 5.909 8 8 0 0 1 5.55 7.608v13.027a8 8 0 0 0 8 8h32a8 8 0 0 0 8-8v-13.026a8 8 0 0 1 5.55-7.608 95.378 95.378 0 0 0 14.221-5.909 7.951 7.951 0 0 1 9.237 1.492l9.218 9.218a8 8 0 0 0 11.313 0l22.628-22.627a8 8 0 0 0 0-11.314l-9.218-9.218a7.951 7.951 0 0 1 -1.492-9.237 95.48 95.48 0 0 0 5.908-14.221 8 8 0 0 1 7.609-5.55h13.026a8 8 0 0 0 8-8v-32a8 8 0 0 0 -8-8zm-112 56a32 32 0 1 1 32-32 32 32 0 0 1 -32 32z" fill="#e25740"/><path d="m256 271.967a71.974 71.974 0 0 1 -62.031-108.551l13.777 8.137a56.009 56.009 0 0 0 87.854 68.047l11.314 11.314a71.779 71.779 0 0 1 -50.914 21.053z" fill="#d64a34"/><path d="m318.031 236.584-13.777-8.137a56.009 56.009 0 0 0 -87.854-68.047l-11.314-11.314a72.009 72.009 0 0 1 112.943 87.5z" fill="#d64a34"/><path d="m468 360a20 20 0 0 0 -20 20 20 20 0 0 0 -40 0 20 20 0 0 0 -40 0v-64a20 20 0 0 0 -40 0v116l-33.532-33.532a22.083 22.083 0 0 0 -15.615-6.468h-.77a22.083 22.083 0 0 0 -22.083 22.083 22.08 22.08 0 0 0 7.412 16.5l64.588 57.417h160v-108a20 20 0 0 0 -20-20z" fill="#fdc8a2"/><path d="m360 376h16v32h-16z" fill="#fdb683"/><path d="m400 376h16v32h-16z" fill="#fdb683"/><path d="m440 376h16v32h-16z" fill="#fdb683"/></g></svg>