<svg width="518" height="518" xmlns="http://www.w3.org/2000/svg">
 <!-- Created with Method Draw - http://github.com/duopixel/Method-Draw/ -->

 <g>
  <title>background</title>
  <rect fill="none" id="canvas_background" height="520" width="520" y="-1" x="-1"/>
  <g display="none" overflow="visible" y="0" x="0" height="100%" width="100%" id="canvasGrid">
   <rect fill="url(#gridpattern)" stroke-width="0" y="0" x="0" height="100%" width="100%"/>
  </g>
 </g>
 <g>
  <title>Layer 1</title>
  <g id="svg_75">
   <rect id="svg_78" height="36.47042" width="48.8233" y="248.82187" x="624.70408" fill-opacity="null" stroke-opacity="null" stroke-width="null" stroke="null" fill="#D9D8DA"/>
   <rect id="svg_77" height="36.47042" width="122.94058" y="212.35146" x="587.64544" stroke-opacity="null" stroke-width="null" stroke="null" fill="#D9D8DA"/>
   <g id="svg_7">
    <path id="svg_8" fill="#D9D8DA" d="m1178.5356,692.3306l0.771,-1.844l0,0l0.007,-0.014l3.522,-8.401c0.189,-0.454 0.418,-0.883 0.665,-1.3l6.446,-14.935l31.544,-39.12l29.816,13.719l0,0l13.161,5.483c1.813,0.63 43.018,15.538 43.018,66.622l0,42.439c0,5.779 -4.685,10.466 -10.466,10.466l-14.354,0l-18.214,0l-15.699,0l-51.105,0l-9.455,0l-3.906,-27.578l-6.426,-39.827c-0.317,-1.928 -0.081,-3.907 0.675,-5.71z"/>
    <path id="svg_9" fill="#D9D8DA" d="m1157.9076,692.3306l-0.773,-1.844l0,0l-0.007,-0.014l-3.52,-8.401c-0.189,-0.454 -0.418,-0.883 -0.665,-1.3l-6.446,-14.935l-31.546,-39.12l-29.816,13.719l0,0l-13.159,5.483c-1.815,0.63 -43.021,15.538 -43.021,66.622l0,42.439c0,5.779 4.687,10.466 10.466,10.466l14.355,0l18.214,0l15.699,0l51.105,0l9.455,0l3.906,-27.578l6.426,-39.827c0.316,-1.928 0.08,-3.907 -0.673,-5.71z"/>
   </g>
   <path id="svg_10" fill="#CBCBCD" d="m641.98879,251.68851l0,-16.57691c0,-19.95503 16.09644,-25.77806 16.80464,-26.02415l5.141,-2.14218l9.63044,-4.43163l-2.89101,-3.58476l-11.64684,5.35897l-5.14022,2.14179c-0.70898,0.24609 -16.80503,6.06952 -16.80503,26.02415l0,16.57769c0,2.25742 1.83085,4.08827 4.08827,4.08827l1.08086,0c-0.16602,-0.44648 -0.26211,-0.92695 -0.26211,-1.43125z"/>
   <path id="svg_11" fill="#EDEFF4" d="m713.21555,199.37575l-4.73593,-3.12499c-0.17656,-0.11602 -0.36133,-0.2125 -0.55039,-0.29922l-3.71718,-2.38984l-24.85579,0l-3.31171,1.97734c-0.30547,0.10898 -0.6043,0.24453 -0.8832,0.42891l-5.16483,3.4078c-1.7121,1.13008 -2.32304,3.35546 -1.42461,5.20155l6.77303,13.92223c0.53164,1.09062 1.51953,1.89023 2.69804,2.18046c0.32305,0.08008 0.65156,0.11914 0.9789,0.11914c0.86367,0 1.71406,-0.27383 2.42382,-0.7957l7.97771,-5.87186c0.13398,-0.09883 0.2582,-0.20586 0.37734,-0.31719l1.84335,-1.37656l1.69257,1.28359c0.15547,0.16133 0.32148,0.31328 0.5043,0.44844l5.48983,4.04022c0.00859,0.00703 0.01875,0.01328 0.02812,0.02031l2.4082,1.77304c0.70976,0.52187 1.56015,0.7957 2.42382,0.7957c0.32734,0 0.65586,-0.03906 0.97968,-0.11914c1.17773,-0.29023 2.1664,-1.08984 2.69726,-2.18046l6.77381,-13.92223c0.89648,-1.8457 0.28594,-4.07108 -1.42617,-5.20155z"/>
   <path id="svg_12" fill="#694B4B" d="m693.03865,104.86584l-2.62109,0c-17.9062,0 -32.47492,14.56832 -32.47492,32.47492l0,4.33163l0,4.0539l0,6.8492c0,0 7.39373,-0.73281 8.30232,-4.31913l-0.0043,-0.00352c0.31211,-0.33906 0.57344,-0.72656 0.75781,-1.15898c4.19374,-0.12656 23.78392,-0.27891 34.971,-13.7902c1.33593,3.90624 5.85194,11.30192 14.54254,13.63121c0.17773,0.47109 0.44492,0.89531 0.77148,1.26406l-0.07266,0.05742c0.90859,3.58593 8.30232,4.31913 8.30232,4.31913l0,-6.87694l0,-4.02655l0,-4.33163c0.00156,-17.9062 -14.56754,-32.47453 -32.47453,-32.47453zm24.48431,41.05849l0.31211,-0.22578l0.04414,0l-0.50937,0.37656l0.15312,-0.15078zm-0.15898,0.09844l0.03633,-0.11133l0.10664,-0.2125l0.04531,0l-0.12969,0.26719l-0.05859,0.05664zm-0.86172,0.66562l-0.01172,-0.0168l0.80117,-0.57969l-0.18984,0.18203l-0.58555,0.4332l-0.01406,-0.01875zm0.66133,-0.18867l-0.25117,0.51953c-0.00156,0 -0.00273,-0.00078 -0.00352,-0.00156l-0.03555,-0.01562c-0.00625,-0.00391 -0.0125,-0.00664 -0.01758,-0.00937l0.40937,-0.8125l0.01016,-0.01055l-0.11172,0.33008z"/>
   <path id="svg_13" fill="#563B3B" d="m663.66725,145.72589l0,-4.0539l0,-4.33163c0,-17.38628 13.73551,-31.62257 30.92414,-32.43546c-0.51562,-0.02422 -1.03203,-0.03945 -1.55234,-0.03945l-2.62109,0c-17.9062,0 -32.47492,14.56832 -32.47492,32.47492l0,4.33163l0,4.0539l0,6.8492c0,0 3.26718,-0.32578 5.72381,-1.5957l0.00039,-5.2535l0,0z"/>
   <path id="svg_14" fill="#FBCB99" d="m721.61475,147.86651c-1.24179,-0.38672 -2.59374,-0.16055 -3.64022,0.60898c-1.04726,0.7707 -1.66601,1.99374 -1.66601,3.29374l0,11.65114c0,1.30039 0.61758,2.52226 1.66484,3.29374c0.71094,0.52305 1.56132,0.79531 2.42382,0.79531c0.40742,0 0.81719,-0.06055 1.21601,-0.18477c0.78359,-0.24375 1.55312,-0.59609 2.28749,-1.04687c0.43398,-0.26562 0.81211,-0.60937 1.11836,-1.01328c0.45078,-0.23164 0.85547,-0.5457 1.19218,-0.92617c1.65195,-1.86796 2.56249,-4.26288 2.56249,-6.74334c-0.00039,-4.48319 -2.87734,-8.39295 -7.15897,-9.72849z"/>
   <path id="svg_15" fill="#EDBA89" d="m665.6024,148.47589c-1.04804,-0.77031 -2.39921,-0.99609 -3.64022,-0.60976c-4.28241,1.33593 -7.16014,5.2453 -7.16014,9.72966c0,4.48436 2.87812,8.39451 7.16014,9.72927c0.39844,0.12422 0.80859,0.18594 1.21679,0.18594c0.86094,0 1.71289,-0.27226 2.42382,-0.7957c1.04648,-0.77031 1.66601,-1.99374 1.66601,-3.29335l0,-11.65192c-0.00039,-1.30078 -0.61992,-2.52343 -1.6664,-3.29413z"/>
   <path id="svg_16" fill="#FBCB99" d="m702.9523,183.73439c-0.80429,-0.7707 -1.8832,-1.17422 -3.00429,-1.1332l-0.13867,0.00742c-0.24961,0.00898 -0.49726,0.04023 -0.74101,0.09453c-1.58007,0.35117 -3.18827,0.52969 -4.78046,0.52969l-4.99882,0c-1.63867,0 -3.29413,-0.18984 -4.92186,-0.5625c-1.21406,-0.27812 -2.48788,0.01172 -3.46093,0.7875c-0.97461,0.77578 -1.5414,1.95351 -1.5414,3.19804l0,11.89372l-0.00273,0.04023c-0.06484,1.18008 0.3832,2.33085 1.23007,3.15546l8.21443,8.00154c0.76406,0.74414 1.78828,1.15937 2.85351,1.15937c0.02109,0 0.04336,0 0.06406,-0.00039c1.08789,-0.01719 2.12499,-0.46719 2.87968,-1.25195l8.46404,-8.78552c0.7332,-0.76172 1.14375,-1.77812 1.14375,-2.83671l0,-11.3445c0,-1.11562 -0.45508,-2.18242 -1.25937,-2.95273z"/>
   <path id="svg_17" fill="#EDBA89" d="m692.4867,208.51948l-8.2156,-8.00115c-0.84609,-0.82539 -1.29414,-1.97617 -1.22929,-3.15546l0.00273,-0.04023l0,-11.89372c0,-1.04648 0.40469,-2.04218 1.11054,-2.79452c-1.14883,-0.20156 -2.33242,0.09219 -3.2496,0.82304c-0.97461,0.77578 -1.5414,1.95351 -1.5414,3.19804l0,11.89372l-0.00273,0.04023c-0.06484,1.18008 0.3832,2.33085 1.23007,3.15546l8.21443,8.00154c0.76406,0.74414 1.78828,1.15937 2.85351,1.15937c0.02109,0 0.04336,0 0.06406,-0.00039c1.08789,-0.01719 2.12499,-0.46719 2.87968,-1.25195l0.03633,-0.03828c-0.80547,-0.13984 -1.5582,-0.5168 -2.15273,-1.0957z"/>
   <path id="svg_18" fill="#FBCB99" d="m715.69094,144.5298c-0.49336,-0.18359 -0.96015,-0.39844 -1.4164,-0.62617c-6.8699,-3.20663 -9.72185,-7.37654 -10.87185,-9.86326c-0.0668,-0.09414 -0.13437,-0.19883 -0.20586,-0.32851c-0.82148,-1.50976 -2.10156,-0.5543 -2.10156,-0.5543l-0.00352,-0.00156c-6.41678,4.92108 -13.42575,7.79842 -19.25112,9.47224c-2.26796,0.67031 -4.44218,1.15625 -6.40662,1.50703c-3.90507,0.71719 -6.416,0.81133 -6.416,0.81133c-2.13867,0.15391 -3.7953,1.93437 -3.7953,4.07811l0,16.68472c0,13.26911 10.79568,24.06478 24.06517,24.06478l4.99882,0c13.27028,0 24.06517,-10.79568 24.06517,-24.06478l0,-17.34878c0.00078,-1.70703 -1.06054,-3.23554 -2.66093,-3.83085z"/>
   <path id="svg_19" fill="#EDBA89" d="m670.13051,165.70983l0,-16.68472c0,-2.14374 1.65625,-3.92421 3.7953,-4.07811c0,0 2.51093,-0.09414 6.416,-0.81133c1.96445,-0.35117 4.13866,-0.83672 6.40662,-1.50703c5.15702,-1.48164 11.23864,-3.90897 17.01871,-7.85975c-0.13633,-0.25547 -0.25742,-0.49844 -0.36367,-0.72851c-0.0668,-0.09414 -0.13437,-0.19883 -0.20586,-0.32851c-0.82148,-1.50976 -2.10156,-0.5543 -2.10156,-0.5543l-0.00352,-0.00156c-6.41678,4.92108 -13.42575,7.79842 -19.25112,9.47224c-2.26796,0.67031 -4.44218,1.15625 -6.40662,1.50703c-3.90507,0.71719 -6.416,0.81133 -6.416,0.81133c-2.13867,0.15391 -3.7953,1.93437 -3.7953,4.07811l0,16.68472c0,13.26911 10.79568,24.06478 24.06517,24.06478l4.90663,0c-13.27028,0 -24.06478,-10.79528 -24.06478,-24.06439z"/>
   <g id="svg_20">
    <path id="svg_21" fill="#CBCBCD" d="m1072.3066,765.4476l15.701,0l0,-49.826c0,-4.336 -3.515,-7.85 -7.851,-7.85s-7.851,3.514 -7.851,7.85l0,49.826l0.001,0z"/>
    <path id="svg_22" fill="#CBCBCD" d="m1264.7666,765.4476l0,-49.826c0,-4.336 -3.515,-7.85 -7.851,-7.85c-4.336,0 -7.851,3.514 -7.851,7.85l0,49.826l15.702,0z"/>
    <path id="svg_23" fill="#CBCBCD" d="m1117.5516,657.5906c0,0 -13.31,14.302 -21.349,17.629l0,8.594l22.085,14.213l37.509,17.288l-1.454,9.013l-68.34,-24.813l0,-28.205l27.099,-22.86l4.45,9.141z"/>
   </g>
   <g id="svg_26">
    <path id="svg_27" fill="#D9D8DA" d="m945.0616,692.3306l0.771,-1.844l0,0l0.007,-0.014l3.519,-8.401c0.189,-0.454 0.418,-0.883 0.665,-1.3l6.445,-14.935l31.545,-39.12l29.816,13.719l0,0l13.161,5.483c1.812,0.63 43.018,15.538 43.018,66.622l0,42.439c0,5.779 -4.685,10.466 -10.466,10.466l-14.353,0l-18.213,0l-15.7,0l-51.104,0l-9.455,0l-3.908,-27.578l-6.425,-39.827c-0.315,-1.928 -0.079,-3.907 0.677,-5.71z"/>
    <path id="svg_28" fill="#D9D8DA" d="m924.4316,692.3306l-0.772,-1.844l0,0l-0.007,-0.014l-3.518,-8.401c-0.19,-0.454 -0.419,-0.883 -0.666,-1.3l-6.446,-14.935l-31.545,-39.12l-29.815,13.719l0,0l-13.16,5.483c-1.813,0.631 -43.02,15.539 -43.02,66.623l0,42.439c0,5.779 4.687,10.466 10.466,10.466l14.356,0l18.213,0l15.7,0l51.104,0l9.455,0l3.908,-27.578l6.425,-39.827c0.313,-1.929 0.076,-3.908 -0.678,-5.711z"/>
   </g>
   <path id="svg_29" fill="#CBCBCD" d="m550.78863,251.68851l0,-16.57691c0,-19.95503 16.09644,-25.77806 16.80464,-26.02415l5.14061,-2.14218l9.63123,-4.43163l-2.89062,-3.58476l-11.64684,5.35897l-5.14061,2.14179c-0.70859,0.2457 -16.80503,6.06912 -16.80503,26.02376l0,16.57769c0,2.25742 1.83085,4.08827 4.08827,4.08827l1.08086,0c-0.1668,-0.44609 -0.2625,-0.92656 -0.2625,-1.43086z"/>
   <path id="svg_30" fill="#EDEFF4" d="m622.01501,199.37575l-4.73553,-3.12499c-0.17656,-0.11602 -0.36133,-0.2125 -0.55039,-0.29922l-3.71718,-2.38984l-24.85658,0l-3.31171,1.97734c-0.30547,0.10898 -0.6043,0.24453 -0.8832,0.42891l-5.16444,3.4078c-1.71328,1.13008 -2.32304,3.35546 -1.425,5.20155l6.77303,13.92223c0.53086,1.09062 1.51914,1.89023 2.69765,2.18046c0.32344,0.08008 0.65156,0.11914 0.97851,0.11914c0.86367,0 1.71445,-0.27383 2.42421,-0.7957l7.97771,-5.87186c0.13359,-0.09883 0.2582,-0.20586 0.37734,-0.31719l1.84296,-1.37656l1.69257,1.28359c0.15547,0.16133 0.32187,0.31328 0.50469,0.44844l5.48905,4.04022c0.00859,0.00703 0.01914,0.01328 0.02852,0.02031l2.4082,1.77304c0.70937,0.52187 1.56015,0.7957 2.42382,0.7957c0.32695,0 0.65547,-0.03906 0.9789,-0.11914c1.17812,-0.29023 2.1664,-1.08984 2.69765,-2.18046l6.77342,-13.92223c0.89804,-1.8457 0.28828,-4.07108 -1.42422,-5.20155z"/>
   <path id="svg_31" fill="#694B4B" d="m601.83811,104.86584l-2.6207,0c-17.9062,0 -32.47531,14.56832 -32.47531,32.47492l0,4.33163l0,4.0539l0,6.8492c0,0 7.39373,-0.73281 8.3031,-4.31913l-0.0043,-0.00352c0.31211,-0.33906 0.57344,-0.72656 0.75742,-1.15898c4.19413,-0.12656 23.7847,-0.27891 34.97217,-13.7902c1.33554,3.90624 5.85116,11.30192 14.54176,13.63121c0.17812,0.47109 0.44492,0.89531 0.77148,1.26406l-0.07266,0.05742c0.90859,3.58593 8.30232,4.31913 8.30232,4.31913l0,-6.87694l0,-4.02655l0,-4.33163c0,-17.9062 -14.56832,-32.47453 -32.47531,-32.47453zm24.4847,41.05849l0.31211,-0.22578l0.04375,0l-0.50937,0.37656l0.15352,-0.15078zm-0.15937,0.09844l0.03594,-0.11133l0.10742,-0.2125l0.04492,0l-0.12891,0.26719l-0.05937,0.05664zm-0.86172,0.66562l-0.01172,-0.0168l0.80078,-0.57969l-0.18984,0.18203l-0.58515,0.4332l-0.01406,-0.01875zm0.66172,-0.18867l-0.25156,0.51953c-0.00117,0 -0.00234,-0.00078 -0.00312,-0.00156l-0.03555,-0.01562c-0.00664,-0.00391 -0.0125,-0.00664 -0.01836,-0.00937l0.40976,-0.8125l0.01055,-0.01055l-0.11172,0.33008z"/>
   <path id="svg_32" fill="#563B3B" d="m572.4667,145.72589l0,-4.0539l0,-4.33163c0,-17.38628 13.73512,-31.62257 30.92375,-32.43546c-0.51445,-0.02422 -1.03164,-0.03945 -1.55195,-0.03945l-2.6207,0c-17.9062,0 -32.47531,14.56832 -32.47531,32.47492l0,4.33163l0,4.0539l0,6.8492c0,0 3.26718,-0.32578 5.72459,-1.5957l0,-5.2535l-0.00039,0z"/>
   <path id="svg_33" fill="#FBCB99" d="m630.41343,147.86651c-1.24179,-0.38672 -2.59335,-0.16055 -3.64022,0.60898c-1.04726,0.7707 -1.66601,1.99374 -1.66601,3.29374l0,11.65114c0,1.30039 0.61797,2.52226 1.66484,3.29374c0.71133,0.52305 1.5625,0.79531 2.42421,0.79531c0.40703,0 0.81679,-0.06055 1.21523,-0.18477c0.78398,-0.24375 1.55351,-0.59609 2.28828,-1.04687c0.43359,-0.26562 0.81211,-0.60937 1.11836,-1.01328c0.45039,-0.23164 0.85508,-0.5457 1.19218,-0.92617c1.65195,-1.86796 2.5621,-4.26288 2.5621,-6.74334c0,-4.48319 -2.87695,-8.39295 -7.15897,-9.72849z"/>
   <path id="svg_34" fill="#EDBA89" d="m574.40185,148.47589c-1.04765,-0.77031 -2.39921,-0.99609 -3.64062,-0.60976c-4.28241,1.33593 -7.15975,5.2453 -7.15975,9.72966c0,4.48436 2.87734,8.39451 7.15975,9.72927c0.39844,0.12422 0.80898,0.18594 1.21718,0.18594c0.86094,0 1.7125,-0.27226 2.42343,-0.7957c1.04687,-0.77031 1.66562,-1.99374 1.66562,-3.29335l0,-11.65192c0,-1.30078 -0.61875,-2.52343 -1.66562,-3.29413z"/>
   <path id="svg_35" fill="#FBCB99" d="m611.75097,183.73439c-0.80429,-0.7707 -1.88242,-1.17422 -3.00351,-1.1332l-0.13906,0.00742c-0.24961,0.00898 -0.49765,0.04023 -0.74101,0.09453c-1.58007,0.35117 -3.18866,0.52969 -4.78046,0.52969l-4.99921,0c-1.63828,0 -3.29413,-0.18984 -4.92147,-0.5625c-1.21406,-0.27812 -2.48827,0.01172 -3.46171,0.7875c-0.97383,0.77578 -1.54101,1.95351 -1.54101,3.19804l0,11.89372l-0.00234,0.04023c-0.06523,1.18008 0.38281,2.33085 1.22929,3.15546l8.21482,8.00154c0.76406,0.74414 1.78789,1.15937 2.85312,1.15937c0.02148,0 0.04336,0 0.06484,-0.00039c1.08789,-0.01719 2.1246,-0.46719 2.87968,-1.25195l8.46365,-8.78552c0.73359,-0.76172 1.14375,-1.77812 1.14375,-2.83671l0,-11.3445c0.00078,-1.11562 -0.45391,-2.18242 -1.25937,-2.95273z"/>
   <path id="svg_36" fill="#EDBA89" d="m601.28577,208.51948l-8.21482,-8.00115c-0.84687,-0.82539 -1.29492,-1.97617 -1.22929,-3.15546l0.00234,-0.04023l0,-11.89372c0,-1.04648 0.40508,-2.04218 1.11093,-2.79452c-1.14961,-0.20156 -2.33281,0.09219 -3.24999,0.82304c-0.97383,0.77578 -1.54101,1.95351 -1.54101,3.19804l0,11.89372l-0.00234,0.04023c-0.06523,1.18008 0.38281,2.33085 1.22929,3.15546l8.21482,8.00154c0.76406,0.74414 1.78789,1.15937 2.85312,1.15937c0.02148,0 0.04336,0 0.06484,-0.00039c1.08789,-0.01719 2.1246,-0.46719 2.87968,-1.25195l0.03633,-0.03828c-0.80625,-0.13984 -1.55898,-0.5168 -2.1539,-1.0957z"/>
   <path id="svg_37" fill="#FBCB99" d="m624.49039,144.5298c-0.49297,-0.18359 -0.96015,-0.39844 -1.41601,-0.62617c-6.87069,-3.20663 -9.72224,-7.37654 -10.87185,-9.86326c-0.0668,-0.09414 -0.13516,-0.19883 -0.20586,-0.32851c-0.82187,-1.50976 -2.10156,-0.5543 -2.10156,-0.5543l-0.00391,-0.00156c-6.41678,4.92108 -13.42536,7.79842 -19.25073,9.47224c-2.26835,0.67031 -4.44218,1.15625 -6.40701,1.50703c-3.90507,0.71719 -6.41561,0.81133 -6.41561,0.81133c-2.13906,0.15391 -3.79491,1.93437 -3.79491,4.07811l0,16.68472c0,13.26911 10.79528,24.06478 24.06478,24.06478l4.99921,0c13.2695,0 24.06478,-10.79568 24.06478,-24.06478l0,-17.34878c0.00039,-1.70703 -1.06093,-3.23554 -2.66132,-3.83085z"/>
   <path id="svg_38" fill="#EDBA89" d="m578.92957,165.70983l0,-16.68472c0,-2.14374 1.65625,-3.92421 3.7953,-4.07811c0,0 2.51054,-0.09414 6.41561,-0.81133c1.96484,-0.35117 4.13866,-0.83672 6.40701,-1.50703c5.15702,-1.48164 11.23903,-3.90897 17.01871,-7.85975c-0.13633,-0.25547 -0.25703,-0.49844 -0.36328,-0.72851c-0.0668,-0.09414 -0.13516,-0.19883 -0.20586,-0.32851c-0.82148,-1.50976 -2.10156,-0.5543 -2.10156,-0.5543l-0.00391,-0.00156c-6.41678,4.92108 -13.42536,7.79842 -19.25073,9.47224c-2.26835,0.67031 -4.44218,1.15625 -6.40701,1.50703c-3.90507,0.71719 -6.41561,0.81133 -6.41561,0.81133c-2.13906,0.15391 -3.79491,1.93437 -3.79491,4.07811l0,16.68472c0,13.26911 10.79528,24.06478 24.06478,24.06478l4.90663,0c-13.26989,0 -24.06517,-10.79528 -24.06517,-24.06439z"/>
   <g id="svg_39">
    <path id="svg_40" fill="#CBCBCD" d="m838.8336,765.4476l15.7,0l0,-49.826c0,-4.336 -3.515,-7.85 -7.851,-7.85s-7.851,3.514 -7.851,7.85l0,49.826l0.002,0z"/>
    <path id="svg_41" fill="#CBCBCD" d="m1031.2916,765.4476l0,-49.826c0,-4.336 -3.514,-7.85 -7.851,-7.85c-4.336,0 -7.851,3.514 -7.851,7.85l0,49.826l15.702,0z"/>
   </g>
   <g fill="#D9D8DA" id="svg_44">
    <path id="svg_45" fill="#D9D8DA" d="m1062.4106,771.4566l0.816,-1.953l0,0l0.008,-0.017l3.728,-8.9c0.201,-0.48 0.444,-0.935 0.706,-1.376l6.826,-15.821l33.417,-41.443l31.586,14.534l0,0l13.942,5.809c1.921,0.668 45.573,16.459 45.573,70.576l0,44.956c0,6.124 -4.965,11.089 -11.089,11.089l-15.207,0l-19.294,0l-16.633,0l-54.137,0l-10.016,0l-4.139,-29.216l-6.807,-42.191c-0.331,-2.042 -0.08,-4.138 0.72,-6.047z"/>
    <path id="svg_46" fill="#D9D8DA" d="m1040.5566,771.4566l-0.817,-1.953l0,0l-0.007,-0.017l-3.728,-8.9c-0.201,-0.48 -0.444,-0.935 -0.706,-1.376l-6.827,-15.821l-33.417,-41.443l-31.586,14.534l0,0l-13.942,5.809c-1.921,0.668 -45.573,16.459 -45.573,70.576l0,44.956c0,6.124 4.964,11.089 11.089,11.089l15.207,0l19.294,0l16.633,0l54.136,0l10.016,0l4.14,-29.216l6.807,-42.191c0.33,-2.042 0.08,-4.138 -0.719,-6.047z"/>
   </g>
   <path id="svg_47" fill="#CBCBCD" d="m593.45102,284.20678l0,-17.56089c0,-21.14018 17.05152,-27.30852 17.80191,-27.56868l5.44608,-2.26913l10.20271,-4.69491l-3.06249,-3.79843l-12.33825,5.67733l-5.44608,2.26913c-0.75039,0.26094 -17.80191,6.42928 -17.80191,27.56868l0,17.56089c0,2.39218 1.93906,4.33163 4.33163,4.33163l1.14453,0c-0.17656,-0.47187 -0.27812,-0.98164 -0.27812,-1.51562z"/>
   <path id="svg_48" fill="#EDEFF4" d="m668.90434,228.78896l-5.01678,-3.31015c-0.18711,-0.12305 -0.38281,-0.22578 -0.58359,-0.31758l-3.93788,-2.53163l-26.33157,0l-3.50819,2.09453c-0.32383,0.11562 -0.64023,0.25937 -0.93594,0.4543l-5.47108,3.61015c-1.81445,1.19765 -2.46054,3.55468 -1.50898,5.51053l7.17459,14.7484c0.56211,1.15625 1.60937,2.00234 2.85781,2.31054c0.34297,0.08437 0.69101,0.12617 1.03711,0.12617c0.91484,0 1.81601,-0.29023 2.56757,-0.84297l8.45115,-6.21991c0.14102,-0.10391 0.27383,-0.21758 0.40039,-0.33594l1.95234,-1.45781l1.79375,1.36015c0.16484,0.1707 0.34101,0.33164 0.53437,0.47461l5.81483,4.28046c0.00898,0.00742 0.01992,0.01445 0.03008,0.02227l2.55156,1.87773c0.75156,0.55273 1.65234,0.84297 2.56757,0.84297c0.34648,0 0.69492,-0.04141 1.0375,-0.12617c1.24843,-0.30781 2.29531,-1.15429 2.85781,-2.31054l7.17498,-14.7484c0.95156,-1.95664 0.30547,-4.31444 -1.50937,-5.5117z"/>
   <path id="svg_49" fill="#694B4B" d="m647.53096,128.66969l-2.77656,0c-18.96909,0 -34.40186,15.43277 -34.40186,34.40265l0,4.58827l0,4.29452l0,7.25584c0,0 7.83201,-0.77656 8.7949,-4.57577l-0.0043,-0.00352c0.33086,-0.35898 0.60742,-0.76953 0.80273,-1.22734c4.44335,-0.13477 25.19642,-0.2957 37.04795,-14.60934c1.41445,4.13827 6.19881,11.97341 15.40465,14.44059c0.18867,0.49883 0.47109,0.94804 0.81719,1.33867l-0.07695,0.06094c0.96289,3.79921 8.79529,4.57577 8.79529,4.57577l0,-7.28514l0,-4.26561l0,-4.58827c0,-18.96948 -15.43316,-34.40225 -34.40304,-34.40225zm25.93782,43.49559l0.33086,-0.23945l0.04648,0l-0.53984,0.39922l0.1625,-0.15977zm-0.16875,0.10352l0.03828,-0.11719l0.11406,-0.22578l0.04766,0l-0.13672,0.2832l-0.06328,0.05977zm-0.91367,0.70547l-0.01211,-0.01758l0.84844,-0.61406l-0.20078,0.19258l-0.61992,0.45898l-0.01562,-0.01992zm0.70195,-0.19961l-0.2668,0.55039c-0.00117,-0.00039 -0.00234,-0.00078 -0.00352,-0.00156l-0.03711,-0.01641c-0.00703,-0.00391 -0.01328,-0.00742 -0.01953,-0.01055l0.43398,-0.86094l0.01094,-0.01094l-0.11797,0.35z"/>
   <path id="svg_50" fill="#563B3B" d="m616.4162,171.95512l0,-4.29452l0,-4.58827c0,-18.41831 14.54957,-33.49991 32.75851,-34.36085c-0.54531,-0.02539 -1.09297,-0.04141 -1.64414,-0.04141l-2.77656,0c-18.96909,0 -34.40186,15.43277 -34.40186,34.40265l0,4.58827l0,4.29452l0,7.25584c0,0 3.46054,-0.34492 6.06405,-1.69062l0,-5.56561l0,0z"/>
   <path id="svg_51" fill="#FBCB99" d="m677.80197,174.22269c-1.31601,-0.40976 -2.74726,-0.17031 -3.85624,0.6457c-1.10976,0.8164 -1.76445,2.11171 -1.76445,3.48944l0,12.34294c0,1.37734 0.65508,2.67226 1.76367,3.48866c0.75312,0.5543 1.65468,0.84297 2.56796,0.84297c0.43125,0 0.86523,-0.06406 1.2875,-0.1957c0.83086,-0.25859 1.64648,-0.63203 2.42421,-1.10976c0.45898,-0.28125 0.86015,-0.64531 1.18476,-1.07304c0.47734,-0.24531 0.90586,-0.57773 1.2625,-0.98164c1.75039,-1.97851 2.71445,-4.51561 2.71445,-7.14295c-0.00039,-4.74999 -3.04804,-8.89177 -7.58436,-10.30661z"/>
   <path id="svg_52" fill="#EDBA89" d="m618.4658,174.8684c-1.10976,-0.8164 -2.5414,-1.05586 -3.85624,-0.64609c-4.53671,1.41523 -7.58475,5.55663 -7.58475,10.307c0,4.75038 3.04804,8.89216 7.58475,10.307c0.42266,0.13164 0.85703,0.19609 1.28945,0.19609c0.91211,0 1.81406,-0.28828 2.56679,-0.84258c1.10937,-0.81601 1.76445,-2.11171 1.76445,-3.48905l0,-12.34372c0,-1.37695 -0.65547,-2.67265 -1.76445,-3.48866z"/>
   <path id="svg_53" fill="#FBCB99" d="m658.0321,212.21908c-0.85234,-0.8164 -1.99453,-1.24375 -3.18202,-1.20039l-0.14727,0.00781c-0.26406,0.00898 -0.52695,0.04297 -0.78515,0.1c-1.67421,0.37148 -3.37812,0.56055 -5.06405,0.56055l-5.29608,0c-1.73593,0 -3.49023,-0.20039 -5.21405,-0.5957c-1.28593,-0.29492 -2.63554,0.01211 -3.66718,0.83437c-1.03125,0.82226 -1.63242,2.06874 -1.63242,3.38749l0,12.59958l-0.00273,0.04258c-0.06914,1.25039 0.40586,2.46874 1.30234,3.34296l8.70271,8.47615c0.80937,0.78789 1.89414,1.22851 3.02187,1.22851c0.02305,0 0.04609,0 0.06875,-0.00039c1.15273,-0.01875 2.25078,-0.49609 3.05077,-1.32578l8.96599,-9.30701c0.77734,-0.80703 1.21211,-1.88437 1.21211,-3.00507l0,-12.01794c0.00117,-1.18086 -0.48086,-2.31054 -1.33359,-3.12773z"/>
   <path id="svg_54" fill="#EDBA89" d="m646.94541,238.47565l-8.70271,-8.47615c-0.89648,-0.87422 -1.37187,-2.09257 -1.30234,-3.34296l0.00273,-0.04258l0,-12.59958c0,-1.10898 0.42891,-2.16328 1.17734,-2.96054c-1.21757,-0.2125 -2.47148,0.09805 -3.44296,0.87226c-1.03125,0.82226 -1.63242,2.06874 -1.63242,3.38749l0,12.59958l-0.00273,0.04258c-0.06914,1.25039 0.40586,2.46874 1.30234,3.34296l8.70271,8.47615c0.80937,0.78789 1.89414,1.22851 3.02187,1.22851c0.02305,0 0.04609,0 0.06875,-0.00039c1.15273,-0.01875 2.25078,-0.49609 3.05077,-1.32578l0.03867,-0.04023c-0.85429,-0.14883 -1.65195,-0.54805 -2.28203,-1.16133z"/>
   <path id="svg_55" fill="#FBCB99" d="m671.52699,170.68755c-0.52226,-0.19453 -1.01758,-0.42187 -1.5,-0.66367c-7.27811,-3.39687 -10.29919,-7.81443 -11.51677,-10.44802c-0.07109,-0.09961 -0.14297,-0.21055 -0.21797,-0.34766c-0.8707,-1.59961 -2.22617,-0.5875 -2.22617,-0.5875l-0.0043,-0.00234c-6.79725,5.21327 -14.22145,8.26092 -20.39331,10.03513c-2.40312,0.70976 -4.70585,1.22422 -6.78709,1.59648c-4.1371,0.76015 -6.79686,0.85937 -6.79686,0.85937c-2.26523,0.16328 -4.0203,2.04882 -4.0203,4.32069l0,17.67495c0,14.05699 11.4363,25.49251 25.49368,25.49251l5.29608,0c14.05699,0 25.49251,-11.43591 25.49251,-25.49251l0,-18.37847c0.00039,-1.80898 -1.12422,-3.42733 -2.81952,-4.05897z"/>
   <path id="svg_56" fill="#EDBA89" d="m623.26227,193.12499l0,-17.67495c0,-2.27148 1.75468,-4.15741 4.0203,-4.32069c0,0 2.65976,-0.09922 6.79686,-0.85937c2.08124,-0.37187 4.38397,-0.88672 6.78709,-1.59648c5.46288,-1.57031 11.90622,-4.14179 18.02886,-8.32615c-0.14453,-0.2707 -0.27226,-0.5289 -0.38516,-0.77148c-0.07109,-0.09961 -0.14297,-0.21055 -0.21797,-0.34766c-0.8707,-1.59961 -2.22617,-0.5875 -2.22617,-0.5875l-0.0043,-0.00234c-6.79725,5.21327 -14.22145,8.26092 -20.39331,10.03513c-2.40312,0.70976 -4.70585,1.22422 -6.78709,1.59648c-4.1371,0.76015 -6.79686,0.85937 -6.79686,0.85937c-2.26523,0.16328 -4.0203,2.04882 -4.0203,4.32069l0,17.67495c0,14.05699 11.4363,25.49251 25.49368,25.49251l5.19725,0c-14.0566,0 -25.4929,-11.43591 -25.4929,-25.49251z"/>
   <g id="svg_57">
    <path id="svg_58" fill="#CBCBCD" d="m949.8756,848.9116l16.633,0l0,-52.784c0,-4.593 -3.724,-8.316 -8.316,-8.316s-8.316,3.724 -8.316,8.316l0,52.784l-0.001,0z"/>
    <path id="svg_59" fill="#CBCBCD" d="m1153.7576,848.9116l0,-52.784c0,-4.593 -3.722,-8.316 -8.316,-8.316c-4.593,0 -8.316,3.724 -8.316,8.316l0,52.784l16.632,0z"/>
   </g>
   <g transform="matrix(0.390624, 0, 0, 0.390624, 0, 0)" id="svg_60"/>
   <g transform="matrix(0.390624, 0, 0, 0.390624, 0, 0)" id="svg_61"/>
   <g transform="matrix(0.390624, 0, 0, 0.390624, 0, 0)" id="svg_62"/>
   <g transform="matrix(0.390624, 0, 0, 0.390624, 0, 0)" id="svg_63"/>
   <g transform="matrix(0.390624, 0, 0, 0.390624, 0, 0)" id="svg_64"/>
   <g transform="matrix(0.390624, 0, 0, 0.390624, 0, 0)" id="svg_65"/>
   <g transform="matrix(0.390624, 0, 0, 0.390624, 0, 0)" id="svg_66"/>
   <g transform="matrix(0.390624, 0, 0, 0.390624, 0, 0)" id="svg_67"/>
   <g transform="matrix(0.390624, 0, 0, 0.390624, 0, 0)" id="svg_68"/>
   <g transform="matrix(0.390624, 0, 0, 0.390624, 0, 0)" id="svg_69"/>
   <g transform="matrix(0.390624, 0, 0, 0.390624, 0, 0)" id="svg_70"/>
   <g transform="matrix(0.390624, 0, 0, 0.390624, 0, 0)" id="svg_71"/>
   <g transform="matrix(0.390624, 0, 0, 0.390624, 0, 0)" id="svg_72"/>
   <g transform="matrix(0.390624, 0, 0, 0.390624, 0, 0)" id="svg_73"/>
   <g transform="matrix(0.390624, 0, 0, 0.390624, 0, 0)" id="svg_74"/>
  </g>
  <g fill="#D9D8DA" id="svg_153">
   <rect id="svg_157" height="92.94117" width="80" y="342.5294" x="223.11761" stroke-opacity="null" stroke-width="null" stroke="null" fill="#d9d8da"/>
   <rect id="svg_156" height="77.64702" width="283.5294" y="283.70589" x="111.35291" stroke-opacity="null" stroke-width="null" stroke="null" fill="#d9d8da"/>
   <g transform="matrix(0.771485, 0, 0, 0.771485, -313.943, -325.823)" id="svg_85">
    <path id="svg_86" fill="#D9D8DA" d="m868.93891,830.52892l0.771,-1.844l0,0l0.007,-0.014l3.522,-8.401c0.189,-0.454 0.418,-0.883 0.665,-1.3l6.446,-14.935l31.544,-39.12l29.816,13.719l0,0l13.161,5.483c1.813,0.63 43.018,15.538 43.018,66.622l0,42.439c0,5.779 -4.685,10.466 -10.466,10.466l-14.354,0l-18.214,0l-15.699,0l-51.105,0l-9.455,0l-3.906,-27.578l-6.426,-39.827c-0.317,-1.928 -0.081,-3.907 0.675,-5.71z"/>
    <path id="svg_87" fill="#D9D8DA" d="m848.31091,830.52892l-0.773,-1.844l0,0l-0.007,-0.014l-3.52,-8.401c-0.189,-0.454 -0.418,-0.883 -0.665,-1.3l-6.446,-14.935l-31.546,-39.12l-29.816,13.719l0,0l-13.159,5.483c-1.815,0.63 -43.021,15.538 -43.021,66.622l0,42.439c0,5.779 4.687,10.466 10.466,10.466l14.355,0l18.214,0l15.699,0l51.105,0l9.455,0l3.906,-27.578l6.426,-39.827c0.316,-1.928 0.08,-3.907 -0.673,-5.71z"/>
   </g>
   <path id="svg_88" fill="#CBCBCD" d="m250.72198,368.49917l0,-32.7395c0,-39.41129 31.79057,-50.91182 33.18927,-51.39785l10.15351,-4.23082l19.02018,-8.75249l-5.70976,-7.07991l-23.00259,10.584l-10.15197,4.23005c-1.40024,0.48604 -33.19004,11.98733 -33.19004,51.39785l0,32.74104c0,4.45841 3.61595,8.07436 8.07436,8.07436l2.1347,0c-0.32788,-0.88181 -0.51767,-1.83073 -0.51767,-2.82672z"/>
   <path id="svg_89" fill="#EDEFF4" d="m391.39527,265.18117l-9.35348,-6.17188c-0.34871,-0.22913 -0.71362,-0.41969 -1.08702,-0.59096l-7.34145,-4.71994l-49.09034,0l-6.54065,3.90526c-0.6033,0.21524 -1.19349,0.48295 -1.74433,0.84709l-10.20057,6.73043c-3.38142,2.23191 -4.58802,6.62705 -2.8136,10.27309l13.37677,27.49649c1.04999,2.15399 3.00108,3.73321 5.32864,4.30643c0.63802,0.15815 1.28684,0.2353 1.93334,0.2353c1.70575,0 3.38527,-0.54081 4.78706,-1.57151l15.75603,-11.59696c0.26462,-0.19519 0.50995,-0.40657 0.74525,-0.62645l3.64064,-2.71871l3.34284,2.5351c0.30705,0.31862 0.63493,0.61873 0.99599,0.88566l10.84245,7.97947c0.01697,0.01389 0.03703,0.02623 0.05555,0.04012l4.7562,3.50177c1.40179,1.0307 3.08131,1.57151 4.78706,1.57151c0.6465,0 1.29532,-0.07715 1.93488,-0.2353c2.32603,-0.57321 4.27865,-2.15244 5.3271,-4.30643l13.37832,-27.49649c1.77056,-3.64527 0.56473,-8.04041 -2.81669,-10.27309z"/>
   <path id="svg_90" fill="#694B4B" d="m351.54577,78.52354l-5.17666,0c-35.36486,0 -64.13815,28.77252 -64.13815,64.13815l0,8.55499l0,8.00647l0,13.52721c0,0 14.60266,-1.44731 16.39714,-8.53031l-0.00849,-0.00694c0.61642,-0.66965 1.13254,-1.43496 1.49668,-2.289c8.28266,-0.24996 46.97339,-0.55084 69.06794,-27.23572c2.63848,7.71485 11.55761,22.32137 28.7216,26.92173c0.35103,0.93041 0.87872,1.76824 1.52368,2.49652l-0.1435,0.11341c1.79447,7.08223 16.39714,8.53031 16.39714,8.53031l0,-13.58199l0,-7.95246l0,-8.55499c0.00309,-35.36486 -28.77098,-64.13738 -64.13738,-64.13738zm48.35666,81.09075l0.61642,-0.44592l0.08718,0l-1.00602,0.74371l0.30242,-0.29779zm-0.31399,0.19441l0.07175,-0.21987l0.21062,-0.41969l0.08949,0l-0.25613,0.5277l-0.11572,0.11187zm-1.7019,1.31461l-0.02314,-0.03317l1.58232,-1.14488l-0.37494,0.35951l-1.15646,0.85558l-0.02777,-0.03703zm1.30612,-0.37263l-0.49606,1.02607c-0.00309,0 -0.0054,-0.00154 -0.00694,-0.00309l-0.07021,-0.03086c-0.01234,-0.00771 -0.02469,-0.01312 -0.03472,-0.01852l0.80852,-1.60469l0.02006,-0.02083l-0.22064,0.6519z"/>
   <path id="svg_91" fill="#563B3B" d="m293.53707,159.22238l0,-8.00647l0,-8.55499c0,-34.33801 27.12772,-62.45477 61.07536,-64.06023c-1.01836,-0.04783 -2.03826,-0.07792 -3.06588,-0.07792l-5.17666,0c-35.36486,0 -64.13815,28.77252 -64.13815,64.13815l0,8.55499l0,8.00647l0,13.52721c0,0 6.4527,-0.64342 11.30456,-3.15151l0.00077,-10.3757l0,0z"/>
   <path id="svg_92" fill="#FBCB99" d="m407.98373,163.45012c-2.45255,-0.76377 -5.12266,-0.31708 -7.18947,1.20274c-2.06835,1.52214 -3.29038,3.93766 -3.29038,6.50516l0,23.01107c0,2.56827 1.21972,4.98148 3.28807,6.50516c1.4041,1.03302 3.08362,1.57074 4.78706,1.57074c0.80466,0 1.61395,-0.11958 2.40163,-0.36491c1.5476,-0.48141 3.06742,-1.17729 4.51781,-2.06758c0.85712,-0.52461 1.60392,-1.20352 2.20876,-2.00123c0.89029,-0.45749 1.68955,-1.07776 2.35457,-1.82919c3.26261,-3.68924 5.06094,-8.41921 5.06094,-13.31814c-0.00077,-8.85433 -5.68276,-16.57612 -14.139,-19.21383z"/>
   <path id="svg_93" fill="#EDBA89" d="m297.359,164.65363c-2.06989,-1.52137 -4.73846,-1.96729 -7.18947,-1.20429c-8.45779,2.63848 -14.14131,10.3595 -14.14131,19.21614c0,8.85664 5.6843,16.57921 14.14131,19.21537c0.78691,0.24533 1.59697,0.36723 2.40317,0.36723c1.70035,0 3.38296,-0.53772 4.78706,-1.57151c2.06681,-1.52137 3.29038,-3.93766 3.29038,-6.50439l0,-23.01262c-0.00077,-2.56904 -1.22435,-4.98379 -3.29115,-6.50593z"/>
   <path id="svg_94" fill="#FBCB99" d="m371.12528,234.28938c-1.58849,-1.52214 -3.71933,-2.31908 -5.93349,-2.23808l-0.27388,0.01466c-0.49298,0.01774 -0.9821,0.07946 -1.46351,0.1867c-3.12066,0.69356 -6.29686,1.04613 -9.44143,1.04613l-9.87269,0c-3.23638,0 -6.50593,-0.37494 -9.72071,-1.11094c-2.39777,-0.5493 -4.91359,0.02314 -6.83535,1.55531c-1.92485,1.53217 -3.04428,3.85819 -3.04428,6.31615l0,23.49017l-0.0054,0.07946c-0.12807,2.33066 0.75683,4.60345 2.42941,6.23205l16.22355,15.80309c1.50902,1.46968 3.53186,2.28977 5.6357,2.28977c0.04166,0 0.08563,0 0.12652,-0.00077c2.14858,-0.03395 4.19688,-0.9227 5.68739,-2.47261l16.71653,-17.35146c1.44808,-1.5044 2.25891,-3.5118 2.25891,-5.60252l0,-22.40546c0,-2.20336 -0.89878,-4.31028 -2.48727,-5.83165z"/>
   <path id="svg_95" fill="#EDBA89" d="m350.45566,283.24008l-16.22587,-15.80232c-1.67104,-1.63015 -2.55593,-3.90294 -2.42786,-6.23205l0.0054,-0.07946l0,-23.49017c0,-2.06681 0.79926,-4.03332 2.19333,-5.5192c-2.26894,-0.39809 -4.60653,0.18207 -6.41798,1.62552c-1.92485,1.53217 -3.04428,3.85819 -3.04428,6.31615l0,23.49017l-0.0054,0.07946c-0.12807,2.33066 0.75683,4.60345 2.42941,6.23205l16.22355,15.80309c1.50902,1.46968 3.53186,2.28977 5.6357,2.28977c0.04166,0 0.08563,0 0.12652,-0.00077c2.14858,-0.03395 4.19688,-0.9227 5.68739,-2.47261l0.07175,-0.07561c-1.5908,-0.27619 -3.07745,-1.02067 -4.25165,-2.16401z"/>
   <path id="svg_96" fill="#FBCB99" d="m396.28417,156.86009c-0.97439,-0.3626 -1.89631,-0.78691 -2.7974,-1.23669c-13.5681,-6.33312 -19.20071,-14.56872 -21.47196,-19.47999c-0.13192,-0.18593 -0.26539,-0.39269 -0.40657,-0.64882c-1.62243,-2.98179 -4.15059,-1.09474 -4.15059,-1.09474l-0.00694,-0.00309c-12.67318,9.71916 -26.51593,15.40192 -38.02108,18.70773c-4.47924,1.32387 -8.77332,2.28359 -12.65312,2.97639c-7.71253,1.41645 -12.67164,1.60237 -12.67164,1.60237c-4.22388,0.30396 -7.49575,3.82039 -7.49575,8.0543l0,32.95242c0,26.20656 21.32152,47.52808 47.52886,47.52808l9.87269,0c26.20888,0 47.52886,-21.32152 47.52886,-47.52808l0,-34.26395c0.00154,-3.37139 -2.09458,-6.39021 -5.25535,-7.56595z"/>
   <path id="svg_97" fill="#EDBA89" d="m306.30205,198.69076l0,-32.95242c0,-4.23391 3.2711,-7.75034 7.49575,-8.0543c0,0 4.9591,-0.18593 12.67164,-1.60237c3.8798,-0.69356 8.17388,-1.65252 12.65312,-2.97639c10.18514,-2.92624 22.19639,-7.72025 33.61204,-15.52304c-0.26925,-0.50455 -0.50841,-0.98441 -0.71825,-1.43882c-0.13192,-0.18593 -0.26539,-0.39269 -0.40657,-0.64882c-1.62243,-2.98179 -4.15059,-1.09474 -4.15059,-1.09474l-0.00694,-0.00309c-12.67318,9.71916 -26.51593,15.40192 -38.02108,18.70773c-4.47924,1.32387 -8.77332,2.28359 -12.65312,2.97639c-7.71253,1.41645 -12.67164,1.60237 -12.67164,1.60237c-4.22388,0.30396 -7.49575,3.82039 -7.49575,8.0543l0,32.95242c0,26.20656 21.32152,47.52808 47.52886,47.52808l9.69062,0c-26.20888,0 -47.52808,-21.32075 -47.52808,-47.52731z"/>
   <g transform="matrix(0.771485, 0, 0, 0.771485, -313.943, -325.823)" id="svg_98">
    <path id="svg_99" fill="#CBCBCD" d="m762.70991,903.64592l15.701,0l0,-49.826c0,-4.336 -3.515,-7.85 -7.851,-7.85s-7.851,3.514 -7.851,7.85l0,49.826l0.001,0z"/>
    <path id="svg_100" fill="#CBCBCD" d="m955.16991,903.64592l0,-49.826c0,-4.336 -3.515,-7.85 -7.851,-7.85c-4.336,0 -7.851,3.514 -7.851,7.85l0,49.826l15.702,0z"/>
    <path id="svg_101" fill="#CBCBCD" d="m807.95491,795.78892c0,0 -13.31,14.302 -21.349,17.629l0,8.594l22.085,14.213l37.509,17.288l-1.454,9.013l-68.34,-24.813l0,-28.205l27.099,-22.86l4.45,9.141z"/>
   </g>
   <g transform="matrix(0.771485, 0, 0, 0.771485, -313.943, -325.823)" id="svg_104">
    <path id="svg_105" fill="#D9D8DA" d="m635.46491,830.52892l0.771,-1.844l0,0l0.007,-0.014l3.519,-8.401c0.189,-0.454 0.418,-0.883 0.665,-1.3l6.445,-14.935l31.545,-39.12l29.816,13.719l0,0l13.161,5.483c1.812,0.63 43.018,15.538 43.018,66.622l0,42.439c0,5.779 -4.685,10.466 -10.466,10.466l-14.353,0l-18.213,0l-15.7,0l-51.104,0l-9.455,0l-3.908,-27.578l-6.425,-39.827c-0.315,-1.928 -0.079,-3.907 0.677,-5.71z"/>
    <path id="svg_106" fill="#D9D8DA" d="m614.83491,830.52892l-0.772,-1.844l0,0l-0.007,-0.014l-3.518,-8.401c-0.19,-0.454 -0.419,-0.883 -0.666,-1.3l-6.446,-14.935l-31.545,-39.12l-29.815,13.719l0,0l-13.16,5.483c-1.813,0.631 -43.02,15.539 -43.02,66.623l0,42.439c0,5.779 4.687,10.466 10.466,10.466l14.356,0l18.213,0l15.7,0l51.104,0l9.455,0l3.908,-27.578l6.425,-39.827c0.313,-1.929 0.076,-3.908 -0.678,-5.711z"/>
   </g>
   <path id="svg_107" fill="#CBCBCD" d="m70.60114,368.49917l0,-32.7395c0,-39.41129 31.79057,-50.91182 33.18927,-51.39785l10.15274,-4.23082l19.02173,-8.75249l-5.70899,-7.07991l-23.00259,10.584l-10.15274,4.23005c-1.39947,0.48526 -33.19004,11.98656 -33.19004,51.39708l0,32.74104c0,4.45841 3.61595,8.07436 8.07436,8.07436l2.1347,0c-0.32942,-0.88104 -0.51844,-1.82996 -0.51844,-2.82595z"/>
   <path id="svg_108" fill="#EDEFF4" d="m211.27366,265.18117l-9.35271,-6.17188c-0.34871,-0.22913 -0.71362,-0.41969 -1.08702,-0.59096l-7.34145,-4.71994l-49.09188,0l-6.54065,3.90526c-0.6033,0.21524 -1.19349,0.48295 -1.74433,0.84709l-10.1998,6.73043c-3.38373,2.23191 -4.58802,6.62705 -2.81438,10.27309l13.37677,27.49649c1.04845,2.15399 3.0003,3.73321 5.32787,4.30643c0.63879,0.15815 1.28684,0.2353 1.93257,0.2353c1.70575,0 3.38605,-0.54081 4.78783,-1.57151l15.75603,-11.59696c0.26385,-0.19519 0.50995,-0.40657 0.74525,-0.62645l3.63986,-2.71871l3.34284,2.5351c0.30705,0.31862 0.6357,0.61873 0.99676,0.88566l10.8409,7.97947c0.01697,0.01389 0.0378,0.02623 0.05632,0.04012l4.7562,3.50177c1.40102,1.0307 3.08131,1.57151 4.78706,1.57151c0.64573,0 1.29455,-0.07715 1.93334,-0.2353c2.3268,-0.57321 4.27865,-2.15244 5.32787,-4.30643l13.37754,-27.49649c1.77364,-3.64527 0.56936,-8.04041 -2.81283,-10.27309z"/>
   <path id="svg_109" fill="#694B4B" d="m171.42416,78.52354l-5.17589,0c-35.36486,0 -64.13892,28.77252 -64.13892,64.13815l0,8.55499l0,8.00647l0,13.52721c0,0 14.60266,-1.44731 16.39868,-8.53031l-0.00849,-0.00694c0.61642,-0.66965 1.13254,-1.43496 1.49591,-2.289c8.28343,-0.24996 46.97493,-0.55084 69.07025,-27.23572c2.63771,7.71485 11.55607,22.32137 28.72006,26.92173c0.3518,0.93041 0.87872,1.76824 1.52368,2.49652l-0.1435,0.11341c1.79447,7.08223 16.39714,8.53031 16.39714,8.53031l0,-13.58199l0,-7.95246l0,-8.55499c0,-35.36486 -28.77252,-64.13738 -64.13892,-64.13738zm48.35743,81.09075l0.61642,-0.44592l0.08641,0l-1.00602,0.74371l0.30319,-0.29779zm-0.31477,0.19441l0.07098,-0.21987l0.21216,-0.41969l0.08872,0l-0.25459,0.5277l-0.11727,0.11187zm-1.7019,1.31461l-0.02314,-0.03317l1.58154,-1.14488l-0.37494,0.35951l-1.15568,0.85558l-0.02777,-0.03703zm1.3069,-0.37263l-0.49684,1.02607c-0.00231,0 -0.00463,-0.00154 -0.00617,-0.00309l-0.07021,-0.03086c-0.01312,-0.00771 -0.02469,-0.01312 -0.03626,-0.01852l0.80929,-1.60469l0.02083,-0.02083l-0.22064,0.6519z"/>
   <path id="svg_110" fill="#563B3B" d="m113.41545,159.22238l0,-8.00647l0,-8.55499c0,-34.33801 27.12694,-62.45477 61.07458,-64.06023c-1.01605,-0.04783 -2.03749,-0.07792 -3.06511,-0.07792l-5.17589,0c-35.36486,0 -64.13892,28.77252 -64.13892,64.13815l0,8.55499l0,8.00647l0,13.52721c0,0 6.4527,-0.64342 11.30611,-3.15151l0,-10.3757l-0.00077,0z"/>
   <path id="svg_111" fill="#FBCB99" d="m227.86058,163.45012c-2.45255,-0.76377 -5.12189,-0.31708 -7.18947,1.20274c-2.06835,1.52214 -3.29038,3.93766 -3.29038,6.50516l0,23.01107c0,2.56827 1.22049,4.98148 3.28807,6.50516c1.40487,1.03302 3.08594,1.57074 4.78783,1.57074c0.80389,0 1.61317,-0.11958 2.40009,-0.36491c1.54837,-0.48141 3.06819,-1.17729 4.51936,-2.06758c0.85635,-0.52461 1.60392,-1.20352 2.20876,-2.00123c0.88952,-0.45749 1.68878,-1.07776 2.35457,-1.82919c3.26261,-3.68924 5.06017,-8.41921 5.06017,-13.31814c0,-8.85433 -5.68198,-16.57612 -14.139,-19.21383z"/>
   <path id="svg_112" fill="#EDBA89" d="m117.23739,164.65363c-2.06912,-1.52137 -4.73846,-1.96729 -7.19024,-1.20429c-8.45779,2.63848 -14.14054,10.3595 -14.14054,19.21614c0,8.85664 5.68276,16.57921 14.14054,19.21537c0.78691,0.24533 1.59774,0.36723 2.40395,0.36723c1.70035,0 3.38219,-0.53772 4.78629,-1.57151c2.06758,-1.52137 3.28961,-3.93766 3.28961,-6.50439l0,-23.01262c0,-2.56904 -1.22203,-4.98379 -3.28961,-6.50593z"/>
   <path id="svg_113" fill="#FBCB99" d="m191.00213,234.28938c-1.58849,-1.52214 -3.71778,-2.31908 -5.93195,-2.23808l-0.27465,0.01466c-0.49298,0.01774 -0.98287,0.07946 -1.46351,0.1867c-3.12066,0.69356 -6.29763,1.04613 -9.44143,1.04613l-9.87346,0c-3.23561,0 -6.50593,-0.37494 -9.71994,-1.11094c-2.39777,-0.5493 -4.91436,0.02314 -6.8369,1.55531c-1.92331,1.53217 -3.04351,3.85819 -3.04351,6.31615l0,23.49017l-0.00463,0.07946c-0.12884,2.33066 0.75605,4.60345 2.42786,6.23205l16.22432,15.80309c1.50902,1.46968 3.53109,2.28977 5.63492,2.28977c0.04243,0 0.08563,0 0.12807,-0.00077c2.14858,-0.03395 4.19611,-0.9227 5.68739,-2.47261l16.71576,-17.35146c1.44885,-1.5044 2.25891,-3.5118 2.25891,-5.60252l0,-22.40546c0.00154,-2.20336 -0.89647,-4.31028 -2.48727,-5.83165z"/>
   <path id="svg_114" fill="#EDBA89" d="m170.33328,283.24008l-16.22432,-15.80232c-1.67258,-1.63015 -2.55747,-3.90294 -2.42786,-6.23205l0.00463,-0.07946l0,-23.49017c0,-2.06681 0.80003,-4.03332 2.1941,-5.5192c-2.27048,-0.39809 -4.60731,0.18207 -6.41875,1.62552c-1.92331,1.53217 -3.04351,3.85819 -3.04351,6.31615l0,23.49017l-0.00463,0.07946c-0.12884,2.33066 0.75605,4.60345 2.42786,6.23205l16.22432,15.80309c1.50902,1.46968 3.53109,2.28977 5.63492,2.28977c0.04243,0 0.08563,0 0.12807,-0.00077c2.14858,-0.03395 4.19611,-0.9227 5.68739,-2.47261l0.07175,-0.07561c-1.59234,-0.27619 -3.079,-1.02067 -4.25397,-2.16401z"/>
   <path id="svg_115" fill="#FBCB99" d="m216.16255,156.86009c-0.97361,-0.3626 -1.89631,-0.78691 -2.79663,-1.23669c-13.56964,-6.33312 -19.20148,-14.56872 -21.47196,-19.47999c-0.13192,-0.18593 -0.26693,-0.39269 -0.40657,-0.64882c-1.6232,-2.98179 -4.15059,-1.09474 -4.15059,-1.09474l-0.00771,-0.00309c-12.67318,9.71916 -26.51516,15.40192 -38.02031,18.70773c-4.48001,1.32387 -8.77332,2.28359 -12.65389,2.97639c-7.71253,1.41645 -12.67086,1.60237 -12.67086,1.60237c-4.22465,0.30396 -7.49497,3.82039 -7.49497,8.0543l0,32.95242c0,26.20656 21.32075,47.52808 47.52808,47.52808l9.87346,0c26.20733,0 47.52808,-21.32152 47.52808,-47.52808l0,-34.26395c0.00077,-3.37139 -2.09535,-6.39021 -5.25613,-7.56595z"/>
   <path id="svg_116" fill="#EDBA89" d="m126.17967,198.69076l0,-32.95242c0,-4.23391 3.2711,-7.75034 7.49575,-8.0543c0,0 4.95833,-0.18593 12.67086,-1.60237c3.88057,-0.69356 8.17388,-1.65252 12.65389,-2.97639c10.18514,-2.92624 22.19716,-7.72025 33.61204,-15.52304c-0.26925,-0.50455 -0.50764,-0.98441 -0.71748,-1.43882c-0.13192,-0.18593 -0.26693,-0.39269 -0.40657,-0.64882c-1.62243,-2.98179 -4.15059,-1.09474 -4.15059,-1.09474l-0.00771,-0.00309c-12.67318,9.71916 -26.51516,15.40192 -38.02031,18.70773c-4.48001,1.32387 -8.77332,2.28359 -12.65389,2.97639c-7.71253,1.41645 -12.67086,1.60237 -12.67086,1.60237c-4.22465,0.30396 -7.49497,3.82039 -7.49497,8.0543l0,32.95242c0,26.20656 21.32075,47.52808 47.52808,47.52808l9.69062,0c-26.20811,0 -47.52886,-21.32075 -47.52886,-47.52731z"/>
   <g transform="matrix(0.771485, 0, 0, 0.771485, -313.943, -325.823)" id="svg_117">
    <path id="svg_118" fill="#CBCBCD" d="m529.23691,903.64592l15.7,0l0,-49.826c0,-4.336 -3.515,-7.85 -7.851,-7.85s-7.851,3.514 -7.851,7.85l0,49.826l0.002,0z"/>
    <path id="svg_119" fill="#CBCBCD" d="m721.69491,903.64592l0,-49.826c0,-4.336 -3.514,-7.85 -7.851,-7.85c-4.336,0 -7.851,3.514 -7.851,7.85l0,49.826l15.702,0z"/>
   </g>
   <g stroke-width="null" fill="#D9D8DA" transform="matrix(0.771485, 0, 0, 0.771485, -313.943, -325.823)" id="svg_122">
    <path id="svg_123" fill="#D9D8DA" d="m752.81391,909.65492l0.816,-1.953l0,0l0.008,-0.017l3.728,-8.9c0.201,-0.48 0.444,-0.935 0.706,-1.376l6.826,-15.821l33.417,-41.443l31.586,14.534l0,0l13.942,5.809c1.921,0.668 45.573,16.459 45.573,70.576l0,44.956c0,6.124 -4.965,11.089 -11.089,11.089l-15.207,0l-19.294,0l-16.633,0l-54.137,0l-10.016,0l-4.139,-29.216l-6.807,-42.191c-0.331,-2.042 -0.08,-4.138 0.72,-6.047z"/>
    <path id="svg_124" fill="#D9D8DA" d="m730.95991,909.65492l-0.817,-1.953l0,0l-0.007,-0.017l-3.728,-8.9c-0.201,-0.48 -0.444,-0.935 -0.706,-1.376l-6.827,-15.821l-33.417,-41.443l-31.586,14.534l0,0l-13.942,5.809c-1.921,0.668 -45.573,16.459 -45.573,70.576l0,44.956c0,6.124 4.964,11.089 11.089,11.089l15.207,0l19.294,0l16.633,0l54.136,0l10.016,0l4.14,-29.216l6.807,-42.191c0.33,-2.042 0.08,-4.138 -0.719,-6.047z"/>
   </g>
   <path id="svg_125" fill="#CBCBCD" d="m154.85961,432.72295l0,-34.68286c0,-41.75198 33.67685,-53.93449 35.15887,-54.4483l10.75604,-4.48155l20.15041,-9.27247l-6.04844,-7.50192l-24.36811,11.21276l-10.75604,4.48155c-1.48202,0.51535 -35.15887,12.69787 -35.15887,54.4483l0,34.68286c0,4.72457 3.82965,8.55499 8.55499,8.55499l2.26045,0c-0.34871,-0.93195 -0.5493,-1.93874 -0.5493,-2.99336z"/>
   <path id="svg_126" fill="#EDEFF4" d="m303.88036,323.27242l-9.90818,-6.53756c-0.36954,-0.24302 -0.75605,-0.44592 -1.1526,-0.62722l-7.77734,-4.99999l-52.00501,0l-6.9287,4.1367c-0.63956,0.22836 -1.26446,0.51227 -1.84848,0.89724l-10.80541,7.13006c-3.58355,2.36537 -4.85958,7.02051 -2.98025,10.88333l14.16986,29.12818c1.11017,2.28359 3.17852,3.95463 5.64418,4.56333c0.67736,0.16664 1.36476,0.24919 2.04829,0.24919c1.80682,0 3.58663,-0.57321 5.07097,-1.66486l16.69107,-12.28435c0.27851,-0.20521 0.54081,-0.42972 0.79077,-0.66348l3.85588,-2.87918l3.54266,2.68631c0.32557,0.33714 0.67351,0.65499 1.05539,0.93735l11.48432,8.45393c0.01774,0.01466 0.03935,0.02854 0.0594,0.04397l5.03934,3.70853c1.48434,1.09165 3.26338,1.66486 5.07097,1.66486c0.68431,0 1.37247,-0.08178 2.04906,-0.24919c2.46567,-0.60793 4.53324,-2.27974 5.64418,-4.56333l14.17063,-29.12818c1.87934,-3.86437 0.6033,-8.52105 -2.98102,-10.88565z"/>
   <path id="svg_127" fill="#694B4B" d="m261.66781,125.53627l-5.48371,0c-37.46407,0 -67.94388,30.47982 -67.94388,67.94543l0,9.06186l0,8.4817l0,14.33033c0,0 15.46827,-1.53371 17.36998,-9.03717l-0.00849,-0.00694c0.65345,-0.70899 1.19966,-1.51982 1.5854,-2.424c8.77564,-0.26616 49.76308,-0.58401 73.16992,-28.85353c2.79355,8.17311 12.24269,23.64755 30.42427,28.52025c0.37263,0.98519 0.93041,1.87239 1.61395,2.64388l-0.15198,0.12035c1.90171,7.50346 17.37075,9.03717 17.37075,9.03717l0,-14.38819l0,-8.42461l0,-9.06186c0,-37.46484 -30.48059,-67.94466 -67.9462,-67.94466zm51.22735,85.90405l0.65345,-0.47292l0.09181,0l-1.06619,0.78846l0.32094,-0.31554zm-0.33328,0.20444l0.07561,-0.23145l0.22527,-0.44592l0.09412,0l-0.27002,0.55933l-0.12498,0.11804zm-1.8045,1.3933l-0.02392,-0.03472l1.67566,-1.21277l-0.39654,0.38034l-1.22435,0.90649l-0.03086,-0.03935zm1.38636,-0.39423l-0.52692,1.08702c-0.00231,-0.00077 -0.00463,-0.00154 -0.00694,-0.00309l-0.07329,-0.0324c-0.01389,-0.00771 -0.02623,-0.01466 -0.03857,-0.02083l0.85712,-1.70035l0.0216,-0.0216l-0.23299,0.69125z"/>
   <path id="svg_128" fill="#563B3B" d="m200.21597,211.02526l0,-8.4817l0,-9.06186c0,-36.37627 28.73549,-66.16253 64.69825,-67.86288c-1.07699,-0.05015 -2.15861,-0.08178 -3.24718,-0.08178l-5.48371,0c-37.46407,0 -67.94388,30.47982 -67.94388,67.94543l0,9.06186l0,8.4817l0,14.33033c0,0 6.83458,-0.68122 11.97653,-3.33899l0,-10.99211l0,0z"/>
   <path id="svg_129" fill="#FBCB99" d="m321.45324,215.50373c-2.59913,-0.80929 -5.42585,-0.33637 -7.6161,1.27526c-2.19179,1.6124 -3.4848,4.17065 -3.4848,6.89167l0,24.37737c0,2.72025 1.29378,5.27773 3.48325,6.89013c1.48742,1.09474 3.26801,1.66486 5.07174,1.66486c0.85172,0 1.70884,-0.12652 2.54281,-0.38651c1.64095,-0.51072 3.25181,-1.24826 4.78783,-2.19179c0.90649,-0.55547 1.69881,-1.27449 2.33991,-2.11927c0.94275,-0.48449 1.78907,-1.14103 2.49344,-1.93874c3.45702,-3.90757 5.36105,-8.91836 5.36105,-14.10737c-0.00077,-9.38125 -6.01989,-17.56131 -14.97915,-20.35562z"/>
   <path id="svg_130" fill="#EDBA89" d="m204.26395,216.77899c-2.19179,-1.6124 -5.01928,-2.08532 -7.6161,-1.27604c-8.96002,2.79509 -14.97992,10.97437 -14.97992,20.35639c0,9.38203 6.01989,17.56208 14.97992,20.35639c0.83475,0.25999 1.69264,0.38729 2.54667,0.38729c1.80142,0 3.58277,-0.56936 5.06943,-1.66409c2.19102,-1.61163 3.4848,-4.17065 3.4848,-6.8909l0,-24.37892c0,-2.71948 -1.29455,-5.2785 -3.4848,-6.89013z"/>
   <path id="svg_131" fill="#FBCB99" d="m282.40763,290.54681c-1.68338,-1.6124 -3.9392,-2.45641 -6.28451,-2.37077l-0.29085,0.01543c-0.52152,0.01774 -1.04073,0.08486 -1.55068,0.1975c-3.30658,0.73368 -6.6718,1.10708 -10.00153,1.10708l-10.45979,0c-3.42848,0 -6.89322,-0.39577 -10.29778,-1.17651c-2.53973,-0.58247 -5.20521,0.02392 -7.2427,1.64789c-2.03672,1.62398 -3.22403,4.08578 -3.22403,6.69032l0,24.88424l-0.0054,0.08409c-0.13655,2.46952 0.80157,4.87578 2.57213,6.60237l17.18791,16.74045c1.59852,1.55608 3.74093,2.42632 5.96821,2.42632c0.04552,0 0.09104,0 0.13578,-0.00077c2.27665,-0.03703 4.44529,-0.97979 6.0253,-2.61842l17.70789,-18.38139c1.53525,-1.59389 2.39392,-3.72164 2.39392,-5.93503l0,-23.7355c0.00231,-2.3322 -0.9497,-4.56333 -2.63385,-6.17728z"/>
   <path id="svg_132" fill="#EDBA89" d="m260.51135,342.4037l-17.18791,-16.74045c-1.77056,-1.72658 -2.70945,-4.13284 -2.57213,-6.60237l0.0054,-0.08409l0,-24.88424c0,-2.19024 0.84709,-4.27248 2.32525,-5.84708c-2.40472,-0.41969 -4.88118,0.19364 -6.79987,1.72273c-2.03672,1.62398 -3.22403,4.08578 -3.22403,6.69032l0,24.88424l-0.0054,0.08409c-0.13655,2.46952 0.80157,4.87578 2.57213,6.60237l17.18791,16.74045c1.59852,1.55608 3.74093,2.42632 5.96821,2.42632c0.04552,0 0.09104,0 0.13578,-0.00077c2.27665,-0.03703 4.44529,-0.97979 6.0253,-2.61842l0.07638,-0.07946c-1.68724,-0.29394 -3.26261,-1.08239 -4.50701,-2.29362z"/>
   <path id="svg_133" fill="#FBCB99" d="m309.06011,208.52179c-1.03148,-0.3842 -2.00972,-0.8332 -2.9625,-1.31075c-14.3743,-6.70883 -20.34096,-15.43355 -22.74568,-20.6349c-0.14041,-0.19673 -0.28236,-0.41583 -0.43049,-0.68662c-1.71964,-3.15923 -4.39669,-1.16031 -4.39669,-1.16031l-0.00849,-0.00463c-13.4246,10.29623 -28.08744,16.31536 -40.2769,19.81944c-4.74617,1.40179 -9.29408,2.41783 -13.40455,3.15306c-8.17079,1.50131 -13.42383,1.69727 -13.42383,1.69727c-4.47384,0.32248 -7.94012,4.04644 -7.94012,8.53339l0,34.90814c0,27.76265 22.58676,50.34786 50.35018,50.34786l10.45979,0c27.76265,0 50.34786,-22.58599 50.34786,-50.34786l0,-36.29758c0.00077,-3.57275 -2.22033,-6.76901 -5.56858,-8.0165z"/>
   <path id="svg_134" fill="#EDBA89" d="m213.73701,252.83587l0,-34.90814c0,-4.48618 3.46551,-8.21091 7.94012,-8.53339c0,0 5.25304,-0.19596 13.42383,-1.69727c4.11047,-0.73445 8.65837,-1.75127 13.40455,-3.15306c10.78921,-3.10137 23.51485,-8.18005 35.6071,-16.4442c-0.28545,-0.53464 -0.53772,-1.04459 -0.76068,-1.52368c-0.14041,-0.19673 -0.28236,-0.41583 -0.43049,-0.68662c-1.71964,-3.15923 -4.39669,-1.16031 -4.39669,-1.16031l-0.00849,-0.00463c-13.4246,10.29623 -28.08744,16.31536 -40.2769,19.81944c-4.74617,1.40179 -9.29408,2.41783 -13.40455,3.15306c-8.17079,1.50131 -13.42383,1.69727 -13.42383,1.69727c-4.47384,0.32248 -7.94012,4.04644 -7.94012,8.53339l0,34.90814c0,27.76265 22.58676,50.34786 50.35018,50.34786l10.2646,0c-27.76188,0 -50.34863,-22.58599 -50.34863,-50.34786z"/>
   <g transform="matrix(0.771485, 0, 0, 0.771485, -313.943, -325.823)" id="svg_135">
    <path id="svg_136" fill="#CBCBCD" d="m640.27891,987.10992l16.633,0l0,-52.784c0,-4.593 -3.724,-8.316 -8.316,-8.316s-8.316,3.724 -8.316,8.316l0,52.784l-0.001,0z"/>
    <path id="svg_137" fill="#CBCBCD" d="m844.16091,987.10992l0,-52.784c0,-4.593 -3.722,-8.316 -8.316,-8.316c-4.593,0 -8.316,3.724 -8.316,8.316l0,52.784l16.632,0z"/>
   </g>
   <g transform="matrix(0.771485, 0, 0, 0.771485, -313.943, -325.823)" id="svg_138"/>
   <g transform="matrix(0.771485, 0, 0, 0.771485, -313.943, -325.823)" id="svg_139"/>
   <g transform="matrix(0.771485, 0, 0, 0.771485, -313.943, -325.823)" id="svg_140"/>
   <g transform="matrix(0.771485, 0, 0, 0.771485, -313.943, -325.823)" id="svg_141"/>
   <g transform="matrix(0.771485, 0, 0, 0.771485, -313.943, -325.823)" id="svg_142"/>
   <g transform="matrix(0.771485, 0, 0, 0.771485, -313.943, -325.823)" id="svg_143"/>
   <g transform="matrix(0.771485, 0, 0, 0.771485, -313.943, -325.823)" id="svg_144"/>
   <g transform="matrix(0.771485, 0, 0, 0.771485, -313.943, -325.823)" id="svg_145"/>
   <g transform="matrix(0.771485, 0, 0, 0.771485, -313.943, -325.823)" id="svg_146"/>
   <g transform="matrix(0.771485, 0, 0, 0.771485, -313.943, -325.823)" id="svg_147"/>
   <g transform="matrix(0.771485, 0, 0, 0.771485, -313.943, -325.823)" id="svg_148"/>
   <g transform="matrix(0.771485, 0, 0, 0.771485, -313.943, -325.823)" id="svg_149"/>
   <g transform="matrix(0.771485, 0, 0, 0.771485, -313.943, -325.823)" id="svg_150"/>
   <g transform="matrix(0.771485, 0, 0, 0.771485, -313.943, -325.823)" id="svg_151"/>
   <g transform="matrix(0.771485, 0, 0, 0.771485, -313.943, -325.823)" id="svg_152"/>
  </g>
 </g>
</svg>