<svg width="200" height="200" xmlns="http://www.w3.org/2000/svg">

 <g>
  <title>background</title>
  <rect fill="none" id="canvas_background" height="202" width="202" y="-1" x="-1"/>
 </g>
 <g>
  <title>Layer 1</title>
  <g id="svg_1" fill="#D1C4E9">
   <path id="svg_2" d="m162.7037,21.73633l-124.96337,0c-4.90928,0 -8.92595,4.01668 -8.92595,8.92595l0,26.77786c0,4.90928 4.01668,8.92595 8.92595,8.92595l124.96337,0c4.90928,0 8.92595,-4.01668 8.92595,-8.92595l0,-26.77786c0,-4.90928 -4.01668,-8.92595 -8.92595,-8.92595z"/>
   <path id="svg_3" d="m162.7037,75.29206l-124.96337,0c-4.90928,0 -8.92595,4.01668 -8.92595,8.92595l0,26.77786c0,4.90928 4.01668,8.92595 8.92595,8.92595l124.96337,0c4.90928,0 8.92595,-4.01668 8.92595,-8.92595l0,-26.77786c0,-4.90928 -4.01668,-8.92595 -8.92595,-8.92595z"/>
   <path id="svg_4" d="m162.7037,128.84779l-124.96337,0c-4.90928,0 -8.92595,4.01668 -8.92595,8.92595l0,26.77786c0,4.90928 4.01668,8.92595 8.92595,8.92595l124.96337,0c4.90928,0 8.92595,-4.01668 8.92595,-8.92595l0,-26.77786c0,-4.90928 -4.01668,-8.92595 -8.92595,-8.92595z"/>
  </g>
  <g id="svg_21">
   <path id="svg_16" d="m179.35987,103.15828l-11.34718,-10.82212c-1.62103,-1.54602 -4.45782,-1.54602 -6.4841,0l-5.26834,5.02456l17.83129,17.00619l5.26834,-5.02456c1.62103,-1.54602 1.62103,-4.25155 0,-6.18407z" fill="#E57373"/>
   <rect id="svg_17" height="6.2" width="17.4" fill="#FF9800" transform="matrix(2.86516, -2.73259, 2.86516, 2.73259, -428.343, -344.381)" y="182.87207" x="0.6111"/>
   <rect id="svg_18" height="6.2" width="3.1" fill="#B0BEC5" transform="matrix(-2.86516, 2.73259, -2.86516, -2.73259, 25.1508, -399.106)" y="-119.97207" x="67.9889"/>
   <polygon id="svg_19" points="97.49807929992676,153.7904052734375 91.4192066192627,176.2075958251953 114.9240894317627,170.4100341796875 " fill="#FFC107"/>
   <polygon id="svg_20" points="94.25600624084473,164.61245727539062 91.4192066192627,176.2075958251953 103.57687568664551,173.50209045410156 " fill="#37474F"/>
  </g>
 </g>
</svg>